SindyleafFont.ufo
<glyph name="comma" format="2">
	<unicode hex="002C"/>
	<advance width="600"/>
	<outline>
		<contour>
			<point x="305.7355" y="110.188" type="curve"/>
			<point x="283.31729" y="121.9446"/>
			<point x="266.0632" y="95.4431"/>
			<point x="280.22089" y="77.1198" type="curve"/>
			<point x="293.22809" y="60.2863"/>
			<point x="228.1689" y="-19.5471"/>
			<point x="217.8925" y="-33.1873" type="curve"/>
			<point x="207.2522" y="-47.3102"/>
			<point x="228.45889" y="-68.5614"/>
			<point x="242.5836" y="-57.8784" type="curve"/>
			<point x="275.47791" y="-32.9999"/>
			<point x="374.03561" y="74.3707"/>
		</contour>
	</outline>
</glyph>
<glyph name="hyphen" format="2">
	<unicode hex="002D"/>
	<advance width="600"/>
	<outline>
		<contour>
			<point x="445.62811" y="304.09299" type="curve"/>
			<point x="391.8121" y="303.49121"/>
			<point x="337.77951" y="288.59189"/>
			<point x="284.267" y="282.7753" type="curve"/>
			<point x="235.1031" y="277.43161"/>
			<point x="184.8474" y="277.07639"/>
			<point x="136.3275" y="267.29431" type="curve"/>
			<point x="121.0913" y="264.22241"/>
			<point x="120.7721" y="239.02341"/>
			<point x="136.3275" y="236.181" type="curve"/>
			<point x="188.0267" y="226.73579"/>
			<point x="241.6937" y="230.84779"/>
			<point x="293.81769" y="235.011" type="curve"/>
			<point x="345.55969" y="239.1443"/>
			<point x="402.80579" y="241.2372"/>
			<point x="451.66141" y="259.51291" type="curve"/>
			<point x="474.4696" y="268.04568"/>
			<point x="472.77591" y="304.397"/>
		</contour>
	</outline>
</glyph>
<glyph name="period" format="2">
	<unicode hex="002E"/>
	<advance width="600"/>
	<outline>
		<contour>
			<point x="303.45209" y="100.1062" type="curve"/>
			<point x="298.63281" y="102.901"/>
			<point x="293.43439" y="104.3073"/>
			<point x="287.85709" y="104.325" type="curve"/>
			<point x="283.60291" y="104.4855"/>
			<point x="279.63501" y="103.598"/>
			<point x="275.95279" y="101.6638" type="curve"/>
			<point x="272.12219" y="100.4175"/>
			<point x="268.8074" y="98.288"/>
			<point x="266.00891" y="95.2747" type="curve"/>
			<point x="262.99561" y="92.4762"/>
			<point x="260.86609" y="89.1614"/>
			<point x="259.61981" y="85.3308" type="curve"/>
			<point x="257.68549" y="81.6486"/>
			<point x="256.7981" y="77.6807"/>
			<point x="256.95859" y="73.4265" type="curve"/>
			<point x="257.32669" y="70.6885"/>
			<point x="257.6947" y="67.9504"/>
			<point x="258.06271" y="65.2124" type="curve"/>
			<point x="259.53061" y="59.978"/>
			<point x="262.1796" y="55.4333"/>
			<point x="266.00891" y="51.5778" type="curve"/>
			<point x="268.09329" y="49.9677"/>
			<point x="270.17761" y="48.3569"/>
			<point x="272.26199" y="46.7462" type="curve"/>
			<point x="277.0813" y="43.9514"/>
			<point x="282.27969" y="42.5452"/>
			<point x="287.85709" y="42.5281" type="curve"/>
			<point x="292.11121" y="42.3676"/>
			<point x="296.07971" y="43.2544"/>
			<point x="299.76199" y="45.1892" type="curve"/>
			<point x="303.5925" y="46.4349"/>
			<point x="306.90671" y="48.5651"/>
			<point x="309.70581" y="51.5778" type="curve"/>
			<point x="312.71909" y="54.3768"/>
			<point x="314.8486" y="57.691"/>
			<point x="316.09439" y="61.5216" type="curve"/>
			<point x="318.02921" y="65.2039"/>
			<point x="318.91599" y="69.1724"/>
			<point x="318.75549" y="73.4265" type="curve"/>
			<point x="318.38809" y="76.1646"/>
			<point x="318.01999" y="78.9026"/>
			<point x="317.65201" y="81.6406" type="curve"/>
			<point x="316.18411" y="86.875"/>
			<point x="313.53519" y="91.4197"/>
			<point x="309.70581" y="95.2747" type="curve"/>
			<point x="307.62149" y="96.8854"/>
			<point x="305.5365" y="98.4961"/>
		</contour>
	</outline>
</glyph>
<glyph name="zero" format="2">
	<unicode hex="0030"/>
	<advance width="600"/>
	<outline>
		<contour>
			<point x="192.76489" y="427.58359" type="curve"/>
			<point x="176.96291" y="419.64169"/>
			<point x="174.56731" y="402.07211"/>
			<point x="180.3448" y="388.0145" type="curve"/>
			<point x="139.67101" y="328.72189"/>
			<point x="143.056" y="235.4523"/>
			<point x="168.03281" y="173.0493" type="curve"/>
			<point x="209.75951" y="68.8"/>
			<point x="313.14581" y="68.7634"/>
			<point x="390.49741" y="133.5162" type="curve"/>
			<point x="461.9104" y="193.2977"/>
			<point x="535.57861" y="292.69101"/>
			<point x="476.04059" y="385.7709" type="curve"/>
			<point x="414.01309" y="482.74289"/>
			<point x="283.00659" y="472.93759"/>
		</contour>
		<contour>
			<point x="376.5192" y="201.75169" type="curve"/>
			<point x="356.52161" y="181.4337"/>
			<point x="333.97949" y="158.59621"/>
			<point x="306.88779" y="148.3716" type="curve"/>
			<point x="257.56409" y="129.7552"/>
			<point x="223.21899" y="165.96741"/>
			<point x="209.6832" y="210.80141" type="curve"/>
			<point x="196.6254" y="254.0509"/>
			<point x="190.3754" y="326.35501"/>
			<point x="217.7332" y="369.80289" type="curve"/>
			<point x="278.08469" y="392.09589"/>
			<point x="353.71951" y="417.45419"/>
			<point x="408.40451" y="368.05969" type="curve"/>
			<point x="465.9552" y="316.07669"/>
			<point x="419.1113" y="245.0275"/>
		</contour>
	</outline>
</glyph>
<glyph name="one" format="2">
	<unicode hex="0031"/>
	<advance width="600"/>
	<outline>
		<contour>
			<point x="304.37811" y="451.8616" type="curve"/>
			<point x="286.2128" y="386.7218"/>
			<point x="274.34201" y="319.6759"/>
			<point x="257.12219" y="254.1949" type="curve"/>
			<point x="241.19321" y="193.6237"/>
			<point x="212.72031" y="130.91859"/>
			<point x="207.8412" y="68.5583" type="curve"/>
			<point x="205.5145" y="38.8184"/>
			<point x="249.8334" y="28.3252"/>
			<point x="263.38129" y="53.5156" type="curve"/>
			<point x="294.0845" y="110.6"/>
			<point x="302.00809" y="185.0519"/>
			<point x="315.51999" y="248.14391" type="curve"/>
			<point x="329.43851" y="313.12869"/>
			<point x="344.53799" y="379.36279"/>
			<point x="350.36011" y="445.6384" type="curve"/>
			<point x="350.28629" y="445.61829"/>
			<point x="350.21301" y="445.59879"/>
			<point x="350.13919" y="445.57861" type="curve"/>
			<point x="350.09698" y="467.98029"/>
			<point x="312.36761" y="480.51089"/>
		</contour>
	</outline>
</glyph>
<glyph name="two" format="2">
	<unicode hex="0032"/>
	<advance width="600"/>
	<outline>
		<contour>
			<point x="144" y="103" type="curve"/>
			<point x="105" y="97"/>
			<point x="116" y="37"/>
			<point x="153" y="36" type="curve"/>
			<point x="241" y="34"/>
			<point x="329" y="31"/>
			<point x="418" y="32" type="curve"/>
			<point x="459" y="33"/>
			<point x="459" y="94"/>
			<point x="418" y="96" type="curve"/>
			<point x="377" y="99"/>
			<point x="336" y="100"/>
			<point x="295" y="101" type="curve"/>
			<point x="312" y="114"/>
			<point x="327" y="129"/>
			<point x="341" y="146" type="curve"/>
			<point x="376" y="189"/>
			<point x="414" y="258"/>
			<point x="401" y="316" type="curve"/>
			<point x="386" y="380"/>
			<point x="320" y="403"/>
			<point x="261" y="405" type="curve"/>
			<point x="221" y="407"/>
			<point x="129" y="396"/>
			<point x="168" y="333" type="curve"/>
			<point x="181" y="311"/>
			<point x="214" y="330"/>
			<point x="202" y="353" type="curve"/>
			<point x="197" y="363"/>
			<point x="289" y="354"/>
			<point x="291" y="353" type="curve"/>
			<point x="310" y="348"/>
			<point x="332" y="338"/>
			<point x="341" y="319" type="curve"/>
			<point x="357" y="285"/>
			<point x="331" y="238"/>
			<point x="313" y="211" type="curve"/>
			<point x="275" y="152"/>
			<point x="213" y="113"/>
		</contour>
	</outline>
</glyph>
<glyph name="three" format="2">
	<unicode hex="0033"/>
	<advance width="600"/>
	<outline>
		<contour>
			<point x="355.28201" y="214.40669" type="curve"/>
			<point x="338.7207" y="222.8943"/>
			<point x="321.26401" y="229.0381"/>
			<point x="303.4119" y="233.2587" type="curve"/>
			<point x="351.52649" y="274.41589"/>
			<point x="388.28491" y="329.4202"/>
			<point x="362.49689" y="386.26401" type="curve"/>
			<point x="338.12991" y="439.9744"/>
			<point x="236.6333" y="512.58612"/>
			<point x="192.3022" y="443.96481" type="curve"/>
			<point x="181.03391" y="426.52161"/>
			<point x="207.8833" y="405.02261"/>
			<point x="221.50571" y="421.4325" type="curve"/>
			<point x="240.9583" y="444.8663"/>
			<point x="296.05829" y="402.55069"/>
			<point x="305.62259" y="386.38489" type="curve"/>
			<point x="326.2146" y="351.58081"/>
			<point x="317.05811" y="327.3389"/>
			<point x="292.16309" y="298.67371" type="curve"/>
			<point x="265.4346" y="267.8967"/>
			<point x="231.0162" y="244.4104"/>
			<point x="192.0062" y="232.46519" type="curve"/>
			<point x="153.772" y="220.7574"/>
			<point x="170.0867" y="167.2406"/>
			<point x="208.23061" y="173.6133" type="curve"/>
			<point x="244.24561" y="179.6301"/>
			<point x="278.4491" y="178.6761"/>
			<point x="312.66721" y="164.7028" type="curve"/>
			<point x="326.77921" y="158.9398"/>
			<point x="354.52029" y="143.11951"/>
			<point x="345.6622" y="121.9775" type="curve"/>
			<point x="342.15329" y="113.6023"/>
			<point x="308.36429" y="95.6427"/>
			<point x="299.3335" y="90.3436" type="curve"/>
			<point x="246.7963" y="59.5135"/>
			<point x="187.049" y="57.9742"/>
			<point x="134.9109" y="31.5295" type="curve"/>
			<point x="113.927" y="20.8868"/>
			<point x="118.5327" y="-14.4897"/>
			<point x="141.57291" y="-19.4476" type="curve"/>
			<point x="192.6465" y="-30.4376"/>
			<point x="250.08971" y="-4.82727"/>
			<point x="295.92529" y="16.7206" type="curve"/>
			<point x="336.25119" y="35.6781"/>
			<point x="399.43301" y="67.9376"/>
			<point x="417.28879" y="112.1454" type="curve"/>
			<point x="436.20001" y="158.9642"/>
			<point x="392.30411" y="195.43401"/>
		</contour>
	</outline>
</glyph>
<glyph name="four" format="2">
	<unicode hex="0034"/>
	<advance width="600"/>
	<outline>
		<contour>
			<point x="263.2056" y="156.07851" type="curve"/>
			<point x="256.39041" y="119.6735"/>
			<point x="249.8688" y="83.222"/>
			<point x="244.59959" y="46.5759" type="curve"/>
			<point x="237.69231" y="-1.46667"/>
			<point x="306.15479" y="-11.2891"/>
			<point x="310.66409" y="37.6349" type="curve"/>
			<point x="314.13571" y="75.3046"/>
			<point x="316.2952" y="113.0792"/>
			<point x="318.1586" y="150.87711" type="curve"/>
			<point x="366.25919" y="147.47681"/>
			<point x="415.26059" y="148.0121"/>
			<point x="456.21771" y="161.2561" type="curve"/>
			<point x="478.74759" y="168.54131"/>
			<point x="482.53781" y="205.4913"/>
			<point x="456.21771" y="210.82581" type="curve"/>
			<point x="412.9761" y="219.5905"/>
			<point x="366.25311" y="214.9286"/>
			<point x="321.21771" y="214.6301" type="curve"/>
			<point x="323.38809" y="259.44461"/>
			<point x="325.8887" y="304.23029"/>
			<point x="330.41559" y="348.8483" type="curve"/>
			<point x="331.37329" y="358.2886"/>
			<point x="323.4827" y="364.07169"/>
			<point x="315.1886" y="365.02869" type="curve"/>
			<point x="344.41959" y="388.7738"/>
			<point x="373.0585" y="413.19641"/>
			<point x="400.65799" y="438.9209" type="curve"/>
			<point x="415.59271" y="452.84119"/>
			<point x="395.73239" y="479.77841"/>
			<point x="378.457" y="467.6947" type="curve"/>
			<point x="313.27701" y="422.1033"/>
			<point x="249.1089" y="375.11411"/>
			<point x="183.36301" y="330.31619" type="curve"/>
			<point x="148.8904" y="306.828"/>
			<point x="59.7076" y="272.81921"/>
			<point x="75.5463" y="217.2382" type="curve"/>
			<point x="90.6598" y="164.2029"/>
			<point x="177.049" y="165.6805"/>
			<point x="219.29021" y="161.07359" type="curve"/>
			<point x="233.2312" y="159.55321"/>
			<point x="247.9846" y="157.785"/>
		</contour>
		<contour>
			<point x="160.4761" y="227.89" type="curve"/>
			<point x="142.3425" y="230.83859"/>
			<point x="135.31129" y="225.66769"/>
			<point x="150.0244" y="241.71629" type="curve"/>
			<point x="180.6738" y="275.14651"/>
			<point x="230.9796" y="298.974"/>
			<point x="267.1918" y="326.93179" type="curve"/>
			<point x="277.2803" y="334.72049"/>
			<point x="287.28448" y="342.5983"/>
			<point x="297.24731" y="350.52191" type="curve"/>
			<point x="291.11938" y="305.56091"/>
			<point x="283.0011" y="260.90521"/>
			<point x="274.57211" y="216.29581" type="curve"/>
			<point x="252.92661" y="217.60249"/>
			<point x="231.29761" y="219.2462"/>
			<point x="209.7491" y="221.6321" type="curve"/>
			<point x="193.31911" y="223.4509"/>
			<point x="176.7963" y="225.2356"/>
		</contour>
	</outline>
</glyph>
<glyph name="five" format="2">
	<unicode hex="0035"/>
	<advance width="600"/>
	<outline>
		<contour>
			<point x="308.55289" y="377.09052" type="curve"/>
			<point x="334.91269" y="391.07791"/>
			<point x="388.67371" y="390.95761"/>
			<point x="412.0856" y="394.34271" type="curve"/>
			<point x="452.7081" y="400.21481"/>
			<point x="493.5596" y="403.98801"/>
			<point x="534.32977" y="408.63708" type="curve"/>
			<point x="566.74933" y="412.33459"/>
			<point x="568.61267" y="459.99081"/>
			<point x="534.32977" y="460.59021" type="curve"/>
			<point x="479.03259" y="461.55759"/>
			<point x="423.73779" y="455.1257"/>
			<point x="369.64899" y="443.54431" type="curve"/>
			<point x="353.14209" y="440.01041"/>
			<point x="331.64609" y="437.61469"/>
			<point x="311.7883" y="432.17529" type="curve"/>
			<point x="312.04221" y="436.03448"/>
			<point x="311.3031" y="440.02011"/>
			<point x="309.64899" y="443.5004" type="curve"/>
			<point x="305.93869" y="451.30859"/>
			<point x="301.06631" y="455.2814"/>
			<point x="292.75089" y="457.3096" type="curve"/>
			<point x="281.47769" y="460.05801"/>
			<point x="272.73318" y="455.12701"/>
			<point x="266.12921" y="446.4758" type="curve"/>
			<point x="248.1268" y="422.8931"/>
			<point x="246.2701" y="382.07339"/>
			<point x="237.851" y="354.21451" type="curve"/>
			<point x="226.0681" y="315.2258"/>
			<point x="211.8817" y="277.24551"/>
			<point x="196.12489" y="239.69971" type="curve"/>
			<point x="186.0553" y="215.705"/>
			<point x="213.87019" y="199.39999"/>
			<point x="233.47659" y="202.34801" type="curve"/>
			<point x="269.10339" y="207.7057"/>
			<point x="309.43909" y="215.1971"/>
			<point x="344.21021" y="202.0898" type="curve"/>
			<point x="383.64499" y="187.22411"/>
			<point x="402.94009" y="149.4702"/>
			<point x="373.4747" y="113.7146" type="curve"/>
			<point x="328.81409" y="59.5197"/>
			<point x="249.4958" y="58.4656"/>
			<point x="186.0596" y="58.4418" type="curve"/>
			<point x="152.9926" y="58.4296"/>
			<point x="144.87849" y="7.84668"/>
			<point x="178.136" y="-0.10254" type="curve"/>
			<point x="272.77341" y="-22.7228"/>
			<point x="437.28271" y="22.1387"/>
			<point x="451.77429" y="136.7657" type="curve"/>
			<point x="457.75089" y="184.0424"/>
			<point x="430.28201" y="226.26891"/>
			<point x="390.48029" y="249.7198" type="curve"/>
			<point x="353.61209" y="271.4429"/>
			<point x="312.12949" y="273.6554"/>
			<point x="270.95209" y="269.31271" type="curve"/>
			<point x="281.2384" y="299.80591"/>
			<point x="290.32779" y="330.7373"/>
			<point x="297.4628" y="362.07401" type="curve"/>
			<point x="303.66391" y="364.87369"/>
			<point x="308.2269" y="369.99149"/>
		</contour>
	</outline>
</glyph>
<glyph name="six" format="2">
	<unicode hex="0036"/>
	<advance width="600"/>
	<outline>
		<contour>
			<point x="256.00281" y="255.8734" type="curve"/>
			<point x="259.2059" y="277.0636"/>
			<point x="264.10709" y="297.17899"/>
			<point x="268.56509" y="313.4137" type="curve"/>
			<point x="285.1337" y="373.74881"/>
			<point x="320.69461" y="417.88019"/>
			<point x="345.84351" y="473.15671" type="curve"/>
			<point x="352.0477" y="486.7926"/>
			<point x="338.21841" y="506.37079"/>
			<point x="323.0231" y="495.97781" type="curve"/>
			<point x="245.5011" y="442.95471"/>
			<point x="207.7997" y="322.63849"/>
			<point x="200.6158" y="233.3783" type="curve"/>
			<point x="200.1263" y="227.29491"/>
			<point x="199.942" y="221.0376"/>
			<point x="199.9994" y="214.69479" type="curve"/>
			<point x="196.6974" y="206.6394"/>
			<point x="197.73441" y="197.868"/>
			<point x="201.5381" y="190.293" type="curve"/>
			<point x="210.35519" y="114.8511"/>
			<point x="256.82861" y="37.3804"/>
			<point x="345.29721" y="60.2527" type="curve"/>
			<point x="403.34589" y="75.2612"/>
			<point x="515.16663" y="178.8501"/>
			<point x="459.14859" y="242.1692" type="curve"/>
			<point x="413.9581" y="293.24951"/>
			<point x="321.40439" y="285.51208"/>
		</contour>
		<contour>
			<point x="369.23889" y="143.19341" type="curve"/>
			<point x="343.49731" y="119.1602"/>
			<point x="309.0863" y="105.3558"/>
			<point x="280.08539" y="132.5336" type="curve"/>
			<point x="266.50571" y="145.2594"/>
			<point x="258.9111" y="162.533"/>
			<point x="255.26981" y="181.80969" type="curve"/>
			<point x="275.62479" y="194.35789"/>
			<point x="295.6409" y="205.7892"/>
			<point x="319.7406" y="211.2213" type="curve"/>
			<point x="333.2843" y="214.27431"/>
			<point x="403.53329" y="222.2083"/>
			<point x="410.5444" y="204.021" type="curve"/>
			<point x="417.02209" y="187.21561"/>
			<point x="380.49561" y="153.703"/>
		</contour>
	</outline>
</glyph>
<glyph name="seven" format="2">
	<unicode hex="0037"/>
	<advance width="600"/>
	<outline>
		<contour>
			<point x="435.55661" y="500.73849" type="curve"/>
			<point x="353.55771" y="488.11771"/>
			<point x="265.0726" y="506.55579"/>
			<point x="183.0652" y="511.5625" type="curve"/>
			<point x="181.63879" y="511.64981"/>
			<point x="180.2832" y="511.49051"/>
			<point x="178.93491" y="511.31531" type="curve"/>
			<point x="168.0103" y="516.9043"/>
			<point x="151.7108" y="511.58569"/>
			<point x="150.93021" y="495.29239" type="curve"/>
			<point x="149.6967" y="469.54959"/>
			<point x="147.30589" y="443.9563"/>
			<point x="145.11839" y="418.28189" type="curve"/>
			<point x="142.8094" y="391.18469"/>
			<point x="187.80521" y="384.86151"/>
			<point x="192.8894" y="411.81641" type="curve"/>
			<point x="195.6964" y="426.69739"/>
			<point x="198.1696" y="441.427"/>
			<point x="201.70039" y="455.9473" type="curve"/>
			<point x="261.99951" y="447.2449"/>
			<point x="322.79169" y="447.8241"/>
			<point x="383.26349" y="444.2175" type="curve"/>
			<point x="306.94269" y="340.43881"/>
			<point x="248.4644" y="212.12711"/>
			<point x="222.94009" y="89.3091" type="curve"/>
			<point x="213.7549" y="45.1123"/>
			<point x="277.82651" y="26.7236"/>
			<point x="290.9668" y="70.5554" type="curve"/>
			<point x="311.9415" y="140.51939"/>
			<point x="332.0892" y="209.0509"/>
			<point x="363.80801" y="275.2301" type="curve"/>
			<point x="394.21451" y="338.67191"/>
			<point x="432.79111" y="395.7019"/>
			<point x="471.24759" y="454.31271" type="curve"/>
			<point x="487.99438" y="479.8364"/>
			<point x="460.41501" y="504.56479"/>
		</contour>
	</outline>
</glyph>
<glyph name="eight" format="2">
	<unicode hex="0038"/>
	<advance width="600"/>
	<outline>
		<contour>
			<point x="379.63751" y="364.39999" type="curve"/>
			<point x="381.49411" y="369.1467"/>
			<point x="382.98099" y="374.16629"/>
			<point x="383.87079" y="379.62949" type="curve"/>
			<point x="390.73911" y="421.79019"/>
			<point x="367.21979" y="463.97519"/>
			<point x="333.73779" y="488.2233" type="curve"/>
			<point x="275.88931" y="530.11841"/>
			<point x="113.9191" y="562.81982"/>
			<point x="111.5112" y="453.3447" type="curve"/>
			<point x="110.3394" y="400.047"/>
			<point x="141.4166" y="351.72421"/>
			<point x="176.7444" y="314.5325" type="curve"/>
			<point x="194.91701" y="295.40039"/>
			<point x="218.2654" y="277.1423"/>
			<point x="240.29111" y="257.53049" type="curve"/>
			<point x="231.3269" y="248.2666"/>
			<point x="222.5708" y="238.80859"/>
			<point x="214.26511" y="228.96671" type="curve"/>
			<point x="182.74899" y="191.6217"/>
			<point x="140.4059" y="140.5658"/>
			<point x="146.6553" y="88.3691" type="curve"/>
			<point x="160.38271" y="-26.2787"/>
			<point x="327.59341" y="8.06702"/>
			<point x="364.09119" y="88.2196" type="curve"/>
			<point x="394.08691" y="154.0936"/>
			<point x="371.30551" y="204.7449"/>
			<point x="332.7399" y="249.8486" type="curve"/>
			<point x="357.1521" y="271.4191"/>
			<point x="382.07401" y="292.46951"/>
			<point x="405.3241" y="315.22339" type="curve"/>
			<point x="426.07361" y="335.52921"/>
			<point x="404.5813" y="369.29019"/>
		</contour>
		<contour>
			<point x="193.8519" y="397.10019" type="curve"/>
			<point x="172.2455" y="433.93491"/>
			<point x="164.9286" y="466.63391"/>
			<point x="214.2926" y="463.89651" type="curve"/>
			<point x="250.0262" y="461.91531"/>
			<point x="293.94839" y="458.996"/>
			<point x="319.32309" y="429.9408" type="curve"/>
			<point x="367.4176" y="374.87"/>
			<point x="293.93619" y="350.00061"/>
			<point x="277.73679" y="305.20569" type="curve"/>
			<point x="245.271" y="335.38821"/>
			<point x="212.7771" y="364.83701"/>
		</contour>
		<contour>
			<point x="249.1461" y="80.8191" type="curve"/>
			<point x="221.2823" y="82.9718"/>
			<point x="220.6958" y="114.7882"/>
			<point x="229.6368" y="135.2173" type="curve"/>
			<point x="236.2231" y="150.26669"/>
			<point x="252.4323" y="168.6615"/>
			<point x="262.60309" y="180.62869" type="curve"/>
			<point x="270.36069" y="189.75591"/>
			<point x="278.573" y="198.42039"/>
			<point x="286.95309" y="206.9135" type="curve"/>
			<point x="297.31021" y="191.6113"/>
			<point x="304.9213" y="174.9725"/>
			<point x="307.73318" y="156.2567" type="curve"/>
			<point x="312.8949" y="121.8958"/>
			<point x="289.87" y="77.6727"/>
		</contour>
	</outline>
</glyph>
<glyph name="nine" format="2">
	<unicode hex="0039"/>
	<advance width="600"/>
	<outline>
		<contour>
			<point x="369.45432" y="544.83832" type="curve"/>
			<point x="256.83469" y="566.04919"/>
			<point x="151.76331" y="469.25351"/>
			<point x="138.37219" y="362.26141" type="curve"/>
			<point x="133.0011" y="319.3475"/>
			<point x="137.298" y="254.3463"/>
			<point x="174.6106" y="225.0098" type="curve"/>
			<point x="222.0947" y="187.6776"/>
			<point x="293.0939" y="222.0764"/>
			<point x="341.78409" y="238.786" type="curve"/>
			<point x="382.82101" y="252.8699"/>
			<point x="403.24521" y="263.75851"/>
			<point x="392.49271" y="211.4117" type="curve"/>
			<point x="385.17209" y="175.77451"/>
			<point x="375.46881" y="140.4675"/>
			<point x="365.5957" y="105.4663" type="curve"/>
			<point x="344.1315" y="29.3732"/>
			<point x="317.91321" y="-45.1764"/>
			<point x="288.09631" y="-118.382" type="curve"/>
			<point x="272.1301" y="-157.5824"/>
			<point x="336.52219" y="-175.4938"/>
			<point x="351.90491" y="-135.9729" type="curve"/>
			<point x="392.6929" y="-31.1786"/>
			<point x="425.6366" y="76.3519"/>
			<point x="449.15219" y="186.3519" type="curve"/>
			<point x="456.00949" y="218.4277"/>
			<point x="466.79141" y="257.96021"/>
			<point x="447.61539" y="288.0145" type="curve"/>
			<point x="440.4364" y="299.26511"/>
			<point x="431.4386" y="306.20419"/>
			<point x="421.4014" y="310.2197" type="curve"/>
			<point x="456.75961" y="394.14731"/>
			<point x="472.98279" y="525.34003"/>
		</contour>
		<contour>
			<point x="210.7037" y="285.5054" type="curve"/>
			<point x="179.6313" y="327.14539"/>
			<point x="213.4857" y="408.03101"/>
			<point x="243.3783" y="438.99481" type="curve"/>
			<point x="272.00681" y="468.64871"/>
			<point x="368.32761" y="519.88953"/>
			<point x="392.29129" y="458.98318" type="curve"/>
			<point x="408.9801" y="416.56561"/>
			<point x="398.9368" y="360.78491"/>
			<point x="384.2554" y="314.1626" type="curve"/>
			<point x="375.11469" y="313.21899"/>
			<point x="365.82889" y="311.30801"/>
			<point x="356.7493" y="308.97461" type="curve"/>
			<point x="324.48059" y="300.68179"/>
			<point x="234.90421" y="253.075"/>
		</contour>
	</outline>
</glyph>
<glyph name="A" format="2">
	<unicode hex="0041"/>
	<advance width="600"/>
	<outline>
		<contour>
			<point x="176" y="219" type="curve"/>
			<point x="177" y="218"/>
			<point x="182" y="218"/>
			<point x="191" y="219" type="curve"/>
			<point x="201" y="219"/>
			<point x="211" y="219"/>
			<point x="221" y="220" type="curve"/>
			<point x="237" y="220"/>
			<point x="252" y="222"/>
			<point x="267" y="224" type="curve"/>
			<point x="304" y="227"/>
			<point x="341" y="232"/>
			<point x="378" y="227" type="curve"/>
			<point x="392" y="225"/>
			<point x="402" y="229"/>
			<point x="408" y="235" type="curve"/>
			<point x="438" y="153"/>
			<point x="469" y="70"/>
			<point x="503" y="-10" type="curve"/>
			<point x="521" y="-54"/>
			<point x="592" y="-37"/>
			<point x="575" y="10" type="curve"/>
			<point x="503" y="206"/>
			<point x="414" y="397"/>
			<point x="338" y="592" type="curve"/>
			<point x="328" y="616"/>
			<point x="300" y="619"/>
			<point x="285" y="599" type="curve"/>
			<point x="153" y="425"/>
			<point x="105" y="200"/>
			<point x="22" y="1" type="curve"/>
			<point x="13" y="-19"/>
			<point x="46" y="-31"/>
			<point x="57" y="-13" type="curve"/>
			<point x="101" y="60"/>
			<point x="133" y="139"/>
			<point x="164" y="219" type="curve"/>
			<point x="168" y="218"/>
			<point x="172" y="218"/>
		</contour>
		<contour>
			<point x="388" y="290" type="curve"/>
			<point x="388" y="290"/>
			<point x="388" y="291"/>
			<point x="387" y="291" type="curve"/>
			<point x="341" y="293"/>
			<point x="297" y="284"/>
			<point x="252" y="273" type="curve"/>
			<point x="228" y="267"/>
			<point x="203" y="265"/>
			<point x="179" y="259" type="curve"/>
			<point x="214" y="350"/>
			<point x="250" y="441"/>
			<point x="303" y="524" type="curve"/>
			<point x="332" y="446"/>
			<point x="360" y="368"/>
		</contour>
	</outline>
</glyph>
<glyph name="B" format="2">
	<unicode hex="0042"/>
	<advance width="600"/>
	<outline>
		<contour>
			<point x="195.42419" y="-0.05737" type="curve"/>
			<point x="196.0168" y="-0.29358"/>
			<point x="196.4996" y="-0.61951"/>
			<point x="197.1198" y="-0.83191" type="curve"/>
			<point x="312.06671" y="-40.2338"/>
			<point x="535.65729" y="5.25818"/>
			<point x="549.68512" y="152.5977" type="curve"/>
			<point x="555.88751" y="217.7484"/>
			<point x="521.09857" y="283.64691"/>
			<point x="466.9501" y="319.24991" type="curve"/>
			<point x="449.3671" y="330.81119"/>
			<point x="430.53711" y="339.11441"/>
			<point x="411.01559" y="344.83829" type="curve"/>
			<point x="458.49609" y="374.7919"/>
			<point x="493.17749" y="415.5585"/>
			<point x="481.99771" y="471.89819" type="curve"/>
			<point x="460.03659" y="582.57141"/>
			<point x="311.61621" y="597.85278"/>
			<point x="224.1754" y="573.85992" type="curve"/>
			<point x="218.9325" y="572.42133"/>
			<point x="215.694" y="569.44031"/>
			<point x="214.0619" y="565.88928" type="curve"/>
			<point x="206.0498" y="569.73389"/>
			<point x="195.38879" y="567.22467"/>
			<point x="191.87869" y="556.13281" type="curve"/>
			<point x="165.5304" y="472.86929"/>
			<point x="163.2556" y="377.4158"/>
			<point x="155.3699" y="290.99979" type="curve"/>
			<point x="146.9507" y="198.73779"/>
			<point x="136.3519" y="102.6221"/>
			<point x="140.0983" y="9.96582" type="curve"/>
			<point x="141.47279" y="-24.0222"/>
			<point x="184.1058" y="-26.4374"/>
		</contour>
		<contour>
			<point x="210.2679" y="281.32141" type="curve"/>
			<point x="214.74001" y="367.55429"/>
			<point x="229.66611" y="457.7612"/>
			<point x="223.9581" y="544.0918" type="curve"/>
			<point x="226.5143" y="543.16772"/>
			<point x="229.39819" y="542.77533"/>
			<point x="232.60741" y="543.27393" type="curve"/>
			<point x="287.01779" y="551.73163"/>
			<point x="460.83191" y="534.96637"/>
			<point x="423.7244" y="440.78549" type="curve"/>
			<point x="401.7572" y="385.0336"/>
			<point x="297.254" y="358.54611"/>
			<point x="246.2579" y="342.36761" type="curve"/>
			<point x="208.3087" y="330.32779"/>
			<point x="223.82021" y="272.70511"/>
			<point x="262.75821" y="282.51831" type="curve"/>
			<point x="314.53311" y="295.56641"/>
			<point x="373.40521" y="300.0946"/>
			<point x="422.09171" y="273.4375" type="curve"/>
			<point x="464.49399" y="250.2209"/>
			<point x="498.69931" y="197.8699"/>
			<point x="484.92551" y="148.07919" type="curve"/>
			<point x="459.78519" y="57.2021"/>
			<point x="287.45181" y="38.5034"/>
			<point x="214.7113" y="62.9767" type="curve"/>
			<point x="210.23129" y="64.4836"/>
			<point x="206.0925" y="64.9109"/>
			<point x="202.229" y="64.6979" type="curve"/>
			<point x="206.5137" y="136.71021"/>
			<point x="206.5442" y="209.5135"/>
		</contour>
	</outline>
</glyph>
<glyph name="C" format="2">
	<unicode hex="0043"/>
	<advance width="600"/>
	<outline>
		<contour>
			<point x="228.3441" y="8.66699" type="curve"/>
			<point x="326.5509" y="-17.0154"/>
			<point x="412.72519" y="61.1414"/>
			<point x="450.9906" y="144.0405" type="curve"/>
			<point x="461.7413" y="167.3309"/>
			<point x="434.70029" y="191.1255"/>
			<point x="414.48669" y="172.2058" type="curve"/>
			<point x="369.38229" y="129.9866"/>
			<point x="316.74869" y="53.4814"/>
			<point x="245.54691" y="71.0663" type="curve"/>
			<point x="168.23" y="90.1605"/>
			<point x="141.8372" y="177.2394"/>
			<point x="150.4749" y="247.3083" type="curve"/>
			<point x="165.56821" y="369.75589"/>
			<point x="277.2009" y="575.04938"/>
			<point x="423.8446" y="473.21841" type="curve"/>
			<point x="438.12561" y="463.30139"/>
			<point x="451.59421" y="481.98611"/>
			<point x="445.54321" y="494.9176" type="curve"/>
			<point x="406.18231" y="579.03082"/>
			<point x="291.01871" y="568.71832"/>
			<point x="226.76331" y="522.02332" type="curve"/>
			<point x="142.69411" y="460.92831"/>
			<point x="91.1188" y="334.4635"/>
			<point x="84.66" y="233.73109" type="curve"/>
			<point x="78.5309" y="138.14149"/>
			<point x="130.0488" y="34.3726"/>
		</contour>
	</outline>
</glyph>
<glyph name="D" format="2">
	<unicode hex="0044"/>
	<advance width="600"/>
	<outline>
		<contour>
			<point x="384.51721" y="518.7384" type="curve"/>
			<point x="325.39182" y="552.39203"/>
			<point x="201.3568" y="578.40332"/>
			<point x="150.4742" y="516.61932" type="curve"/>
			<point x="138.6646" y="502.27911"/>
			<point x="156.2213" y="485.3107"/>
			<point x="170.58231" y="496.51059" type="curve"/>
			<point x="229.97501" y="542.83081"/>
			<point x="342.72711" y="493.7085"/>
			<point x="389.74371" y="451.14621" type="curve"/>
			<point x="441.80661" y="404.01489"/>
			<point x="476.11819" y="333.51141"/>
			<point x="480.6976" y="263.36609" type="curve"/>
			<point x="490.4584" y="113.858"/>
			<point x="339.11441" y="93.0573"/>
			<point x="215.5255" y="78.2361" type="curve"/>
			<point x="215.9778" y="79.9219"/>
			<point x="216.3251" y="81.6608"/>
			<point x="216.46851" y="83.4869" type="curve"/>
			<point x="221.358" y="145.6329"/>
			<point x="222.53909" y="207.923"/>
			<point x="228.9252" y="270.06711" type="curve"/>
			<point x="235.69209" y="335.91431"/>
			<point x="247.8912" y="403.59381"/>
			<point x="247.4707" y="469.79611" type="curve"/>
			<point x="247.36391" y="486.63879"/>
			<point x="225.7928" y="487.27289"/>
			<point x="220.07809" y="473.50339" type="curve"/>
			<point x="192.5452" y="407.1637"/>
			<point x="182.20151" y="331.30069"/>
			<point x="172.7588" y="260.50171" type="curve"/>
			<point x="167.65379" y="222.2278"/>
			<point x="163.28191" y="183.86411"/>
			<point x="159.8224" y="145.4059" type="curve"/>
			<point x="157.41701" y="118.6633"/>
			<point x="152.3688" y="95.7141"/>
			<point x="165.01401" y="71.9189" type="curve"/>
			<point x="156.5686" y="70.741"/>
			<point x="148.4308" y="69.4983"/>
			<point x="140.6897" y="68.1372" type="curve"/>
			<point x="100.8911" y="61.1389"/>
			<point x="111.1548" y="-1.22864"/>
			<point x="150.06709" y="-1.1499" type="curve"/>
			<point x="207.5488" y="-1.03333"/>
			<point x="266.64429" y="11.7151"/>
			<point x="322.72949" y="23.4827" type="curve"/>
			<point x="369.24438" y="33.2416"/>
			<point x="417.19241" y="45.7172"/>
			<point x="457.64651" y="71.6895" type="curve"/>
			<point x="537.00067" y="122.6373"/>
			<point x="557.49017" y="214.0753"/>
			<point x="538.12189" y="302.20639" type="curve"/>
			<point x="518.82867" y="389.9957"/>
			<point x="463.3606" y="473.86111"/>
		</contour>
	</outline>
</glyph>
<glyph name="E" format="2">
	<unicode hex="0045"/>
	<advance width="600"/>
	<outline>
		<contour>
			<point x="149.0887" y="507.15091" type="curve"/>
			<point x="237.7142" y="498.67801"/>
			<point x="327.8851" y="495.57919"/>
			<point x="416.77979" y="489.7113" type="curve"/>
			<point x="452.0264" y="487.38461"/>
			<point x="450.70679" y="540.07928"/>
			<point x="416.77979" y="543.85193" type="curve"/>
			<point x="328.3118" y="553.68958"/>
			<point x="232.5244" y="555.40039"/>
			<point x="144.364" y="542.06299" type="curve"/>
			<point x="123.1464" y="538.85309"/>
			<point x="130.7196" y="508.9075"/>
		</contour>
		<contour>
			<point x="106.4716" y="-3.28552" type="curve"/>
			<point x="155.686" y="0.3241"/>
			<point x="204.903" y="3.8916"/>
			<point x="254.1241" y="7.40967" type="curve"/>
			<point x="298.7085" y="10.5969"/>
			<point x="346.00949" y="9.13208"/>
			<point x="389.0686" y="21.6388" type="curve"/>
			<point x="419.49039" y="30.4749"/>
			<point x="410.01709" y="69.6362"/>
			<point x="382.08981" y="73.2007" type="curve"/>
			<point x="337.4866" y="78.894"/>
			<point x="289.16989" y="69.6472"/>
			<point x="244.28101" y="65.9283" type="curve"/>
			<point x="210.16969" y="63.1024"/>
			<point x="176.0535" y="60.3296"/>
			<point x="141.9379" y="57.5549" type="curve"/>
			<point x="155.1624" y="125.6689"/>
			<point x="170.7104" y="193.4308"/>
			<point x="188.4509" y="260.62189" type="curve"/>
			<point x="190.166" y="259.43301"/>
			<point x="192.168" y="258.56021"/>
			<point x="194.4928" y="258.1586" type="curve"/>
			<point x="265.66769" y="245.86"/>
			<point x="355.84171" y="238.78169"/>
			<point x="427.17041" y="250.5499" type="curve"/>
			<point x="452.94681" y="254.8022"/>
			<point x="453.09079" y="298.6188"/>
			<point x="427.17041" y="302.75629" type="curve"/>
			<point x="356.76208" y="313.99539"/>
			<point x="268.21039" y="306.86771"/>
			<point x="197.5537" y="294.51599" type="curve"/>
			<point x="213.7415" y="353.23431"/>
			<point x="231.5186" y="411.49231"/>
			<point x="250.88989" y="469.09729" type="curve"/>
			<point x="256.82501" y="486.74741"/>
			<point x="228.28979" y="499.27551"/>
			<point x="220.4034" y="481.9501" type="curve"/>
			<point x="154.77541" y="337.7673"/>
			<point x="107.8522" y="189.0997"/>
			<point x="78.537" y="33.385" type="curve"/>
			<point x="75.3241" y="16.3196"/>
			<point x="86.2695" y="-4.76685"/>
		</contour>
	</outline>
</glyph>
<glyph name="F" format="2">
	<unicode hex="0046"/>
	<advance width="600"/>
	<outline>
		<contour>
			<point x="181.4417" y="498.6188" type="curve"/>
			<point x="254.18581" y="481.55209"/>
			<point x="344.41409" y="482.00201"/>
			<point x="418.72131" y="484.77719" type="curve"/>
			<point x="445.8179" y="485.78922"/>
			<point x="445.0647" y="523.92328"/>
			<point x="418.72131" y="526.33972" type="curve"/>
			<point x="341.2164" y="533.44971"/>
			<point x="262.93881" y="526.97137"/>
			<point x="185.3168" y="527.25098" type="curve"/>
			<point x="169.1467" y="527.30902"/>
			<point x="165.1721" y="502.43591"/>
		</contour>
		<contour>
			<point x="128.4406" y="-54.292" type="curve"/>
			<point x="128.63831" y="-54.3457"/>
			<point x="128.8367" y="-54.3994"/>
			<point x="129.03439" y="-54.4531" type="curve"/>
			<point x="133.4265" y="32.8369"/>
			<point x="138.65601" y="119.4373"/>
			<point x="148.96001" y="206.28419" type="curve"/>
			<point x="150.47301" y="219.0356"/>
			<point x="152.2028" y="231.7395"/>
			<point x="154.0405" y="244.42081" type="curve"/>
			<point x="154.7021" y="243.9581"/>
			<point x="155.40891" y="243.5181"/>
			<point x="156.2244" y="243.13721" type="curve"/>
			<point x="188.4131" y="228.0957"/>
			<point x="216.85851" y="232.8577"/>
			<point x="251.27991" y="237.42371" type="curve"/>
			<point x="300.7977" y="243.99229"/>
			<point x="351.0809" y="237.3004"/>
			<point x="399.96149" y="243.70061" type="curve"/>
			<point x="423.37949" y="246.7664"/>
			<point x="433.75369" y="282.47681"/>
			<point x="406.0675" y="288.81769" type="curve"/>
			<point x="369.90421" y="297.09961"/>
			<point x="332.23569" y="292.0575"/>
			<point x="295.74161" y="287.1301" type="curve"/>
			<point x="256.50699" y="281.83289"/>
			<point x="205.9839" y="259.40311"/>
			<point x="166.7596" y="268.12561" type="curve"/>
			<point x="163.3575" y="268.88239"/>
			<point x="160.1593" y="268.22629"/>
			<point x="157.4353" y="266.73831" type="curve"/>
			<point x="168.5242" y="337.32059"/>
			<point x="183.1104" y="407.15329"/>
			<point x="193.5162" y="477.8992" type="curve"/>
			<point x="196.35741" y="497.2168"/>
			<point x="170.9613" y="504.84189"/>
			<point x="163.9856" y="486.04059" type="curve"/>
			<point x="101.7413" y="318.29099"/>
			<point x="76.012" y="123.7451"/>
			<point x="69.1595" y="-54.4531" type="curve"/>
			<point x="67.6599" y="-93.4509"/>
			<point x="127.0044" y="-91.8439"/>
		</contour>
	</outline>
</glyph>
<glyph name="G" format="2">
	<unicode hex="0047"/>
	<advance width="600"/>
	<outline>
		<contour>
			<point x="179.563" y="-16.3586" type="curve"/>
			<point x="249.36951" y="-65.1349"/>
			<point x="319.17542" y="-28.194"/>
			<point x="377.58969" y="19.5819" type="curve"/>
			<point x="376.9751" y="15.3949"/>
			<point x="376.4014" y="11.2"/>
			<point x="375.9595" y="6.97815" type="curve"/>
			<point x="372.50061" y="-26.0687"/>
			<point x="426.08759" y="-26.8225"/>
			<point x="428.22021" y="6.97815" type="curve"/>
			<point x="428.41739" y="10.1093"/>
			<point x="428.61511" y="13.241"/>
			<point x="428.8129" y="16.3727" type="curve"/>
			<point x="428.86841" y="17.2559"/>
			<point x="428.642" y="18.0444"/>
			<point x="428.57669" y="18.8892" type="curve"/>
			<point x="429.4379" y="36.2744"/>
			<point x="432.02451" y="53.8257"/>
			<point x="435.24481" y="71.4496" type="curve"/>
			<point x="436.7334" y="72.8516"/>
			<point x="438.22629" y="74.2572"/>
			<point x="439.68631" y="75.6274" type="curve"/>
			<point x="450.77209" y="86.0327"/>
			<point x="449.2822" y="98.3252"/>
			<point x="442.13129" y="106.7346" type="curve"/>
			<point x="450.04639" y="146.2793"/>
			<point x="457.16309" y="185.8508"/>
			<point x="451.04309" y="224.3909" type="curve"/>
			<point x="470.8215" y="222.7509"/>
			<point x="490.2179" y="221.62601"/>
			<point x="508.32458" y="231.0107" type="curve"/>
			<point x="519.90973" y="237.0154"/>
			<point x="519.90973" y="255.7001"/>
			<point x="508.32458" y="261.70471" type="curve"/>
			<point x="485.85751" y="273.34961"/>
			<point x="461.41541" y="268.82629"/>
			<point x="436.70651" y="267.19669" type="curve"/>
			<point x="408.22629" y="265.31799"/>
			<point x="379.75339" y="263.33011"/>
			<point x="351.2775" y="261.39651" type="curve"/>
			<point x="331.9458" y="260.0842"/>
			<point x="331.9104" y="232.6337"/>
			<point x="351.2775" y="231.31841" type="curve"/>
			<point x="379.75339" y="229.38541"/>
			<point x="408.22629" y="227.39751"/>
			<point x="436.70651" y="225.5188" type="curve"/>
			<point x="436.94339" y="225.5029"/>
			<point x="437.17899" y="225.4803"/>
			<point x="437.4158" y="225.46449" type="curve"/>
			<point x="428.19339" y="185.3448"/>
			<point x="413.20432" y="146.5094"/>
			<point x="400.12631" y="107.3383" type="curve"/>
			<point x="352.17831" y="68.338"/>
			<point x="285.5737" y="-12.7716"/>
			<point x="217.356" y="22.3718" type="curve"/>
			<point x="153.8544" y="55.0854"/>
			<point x="152.49451" y="160.705"/>
			<point x="160.1355" y="219.79131" type="curve"/>
			<point x="168.66029" y="285.71411"/>
			<point x="193.576" y="351.69861"/>
			<point x="234.05521" y="404.71371" type="curve"/>
			<point x="274.20959" y="457.3035"/>
			<point x="387.35172" y="543.61328"/>
			<point x="423.241" y="438.5455" type="curve"/>
			<point x="426.78339" y="428.1738"/>
			<point x="440.05981" y="428.7244"/>
			<point x="443.8074" y="438.5455" type="curve"/>
			<point x="456.71329" y="472.37061"/>
			<point x="435.84659" y="507.92911"/>
			<point x="405.246" y="524.50928" type="curve"/>
			<point x="364.51419" y="546.5802"/>
			<point x="316.1145" y="533.75311"/>
			<point x="278.14389" y="512.51532" type="curve"/>
			<point x="187.3615" y="461.73709"/>
			<point x="133.0994" y="355.7977"/>
			<point x="113.2037" y="257.099" type="curve"/>
			<point x="95.6091" y="169.81261"/>
			<point x="97.6025" y="40.91"/>
		</contour>
	</outline>
</glyph>
<glyph name="H" format="2">
	<unicode hex="0048"/>
	<advance width="600"/>
	<outline>
		<contour>
			<point x="89.8694" y="-1.95557" type="curve"/>
			<point x="106.098" y="-15.1581"/>
			<point x="133.6255" y="-12.3901"/>
			<point x="139.22" y="11.0736" type="curve"/>
			<point x="139.52209" y="12.3389"/>
			<point x="139.82359" y="13.6041"/>
			<point x="140.12511" y="14.8694" type="curve"/>
			<point x="141.8567" y="22.1313"/>
			<point x="140.4279" y="29.6912"/>
			<point x="136.9025" y="35.9613" type="curve"/>
			<point x="136.9287" y="39.0918"/>
			<point x="136.94031" y="43.1415"/>
			<point x="136.9373" y="48.161" type="curve"/>
			<point x="137.229" y="60.7764"/>
			<point x="137.5891" y="73.3905"/>
			<point x="138.0182" y="86.0022" type="curve"/>
			<point x="138.63161" y="104.9237"/>
			<point x="139.3488" y="123.8428"/>
			<point x="140.1788" y="142.75571" type="curve"/>
			<point x="141.7523" y="178.63651"/>
			<point x="143.9288" y="214.4843"/>
			<point x="146.5063" y="250.30521" type="curve"/>
			<point x="190.3961" y="241.5118"/>
			<point x="237.6068" y="247.3248"/>
			<point x="282.22601" y="247.7832" type="curve"/>
			<point x="328.94409" y="248.26289"/>
			<point x="376.75171" y="244.4037"/>
			<point x="422.92181" y="251.8372" type="curve"/>
			<point x="429.96829" y="252.9718"/>
			<point x="434.70761" y="256.2457"/>
			<point x="437.59579" y="260.5524" type="curve"/>
			<point x="434.99631" y="240.30029"/>
			<point x="432.52139" y="220.0311"/>
			<point x="430.12079" y="199.7534" type="curve"/>
			<point x="426.71631" y="170.993"/>
			<point x="423.5437" y="142.2058"/>
			<point x="420.40219" y="113.4155" type="curve"/>
			<point x="419.49649" y="105.1154"/>
			<point x="419.18579" y="56.618"/>
			<point x="416.8707" y="44.0186" type="curve"/>
			<point x="410.23441" y="38.8623"/>
			<point x="405.7739" y="31.2061"/>
			<point x="406.41299" y="21.6803" type="curve"/>
			<point x="406.4819" y="20.6561"/>
			<point x="406.55029" y="19.6313"/>
			<point x="406.61929" y="18.6072" type="curve"/>
			<point x="408.52719" y="-9.85046"/>
			<point x="439.43301" y="-21.886"/>
			<point x="460.7666" y="-3.8208" type="curve"/>
			<point x="483.76401" y="15.6531"/>
			<point x="476.20181" y="58.2544"/>
			<point x="477.5726" y="84.6149" type="curve"/>
			<point x="480.06961" y="132.6263"/>
			<point x="483.37219" y="180.5829"/>
			<point x="487.16431" y="228.5083" type="curve"/>
			<point x="490.95151" y="276.3721"/>
			<point x="494.8309" y="324.2316"/>
			<point x="498.7067" y="372.08801" type="curve"/>
			<point x="500.7709" y="397.5751"/>
			<point x="502.9834" y="423.0499"/>
			<point x="505.34421" y="448.51071" type="curve"/>
			<point x="506.44901" y="460.42969"/>
			<point x="504.6637" y="518.58459"/>
			<point x="513.64868" y="525.47491" type="curve"/>
			<point x="522.47681" y="532.24548"/>
			<point x="520.91669" y="548.84399"/>
			<point x="507.43839" y="548.40448" type="curve"/>
			<point x="480.979" y="547.5415"/>
			<point x="480.58841" y="523.04932"/>
			<point x="476.46729" y="500.74579" type="curve"/>
			<point x="466.59909" y="447.34311"/>
			<point x="457.3132" y="393.82199"/>
			<point x="448.83969" y="340.18011" type="curve"/>
			<point x="445.64941" y="319.98541"/>
			<point x="442.79239" y="299.74429"/>
			<point x="440.0842" y="279.48239" type="curve"/>
			<point x="437.33459" y="290.22339"/>
			<point x="428.60172" y="300.19229"/>
			<point x="416.23471" y="301.25119" type="curve"/>
			<point x="369.2157" y="305.27591"/>
			<point x="319.707" y="296.4801"/>
			<point x="272.65631" y="292.71671" type="curve"/>
			<point x="231.8011" y="289.44949"/>
			<point x="187.9791" y="290.40649"/>
			<point x="148.5376" y="278.6304" type="curve"/>
			<point x="148.692" y="280.53339"/>
			<point x="148.78909" y="282.4408"/>
			<point x="148.9471" y="284.3439" type="curve"/>
			<point x="152.58121" y="328.17081"/>
			<point x="156.2579" y="371.98969"/>
			<point x="161.5399" y="415.65549" type="curve"/>
			<point x="166.2451" y="454.54901"/>
			<point x="183.03101" y="499.47079"/>
			<point x="169.85719" y="537.26379" type="curve"/>
			<point x="169.0668" y="539.53247"/>
			<point x="166.1951" y="540.56879"/>
			<point x="164.3732" y="538.71149" type="curve"/>
			<point x="136.2341" y="510.03601"/>
			<point x="133.4503" y="458.82391"/>
			<point x="125.5566" y="420.5249" type="curve"/>
			<point x="114.9677" y="369.151"/>
			<point x="106.3611" y="317.52441"/>
			<point x="99.6643" y="265.50601" type="curve"/>
			<point x="92.7899" y="212.1118"/>
			<point x="87.3132" y="158.54739"/>
			<point x="82.5928" y="104.9225" type="curve"/>
			<point x="79.9878" y="75.3333"/>
			<point x="62.6978" y="20.1495"/>
		</contour>
	</outline>
</glyph>
<glyph name="I" format="2">
	<unicode hex="0049"/>
	<advance width="600"/>
	<outline>
		<contour>
			<point x="281.95309" y="38.5889" type="curve"/>
			<point x="293.29831" y="122.2931"/>
			<point x="298.08231" y="206.5894"/>
			<point x="310.97171" y="290.2222" type="curve"/>
			<point x="317.16309" y="330.39429"/>
			<point x="323.72861" y="370.5383"/>
			<point x="331.1145" y="410.51031" type="curve"/>
			<point x="337.26071" y="443.77621"/>
			<point x="351.1395" y="478.26721"/>
			<point x="340.82031" y="511.2128" type="curve"/>
			<point x="338.10239" y="519.89069"/>
			<point x="327.37369" y="522.93701"/>
			<point x="320.7117" y="516.52161" type="curve"/>
			<point x="295.63901" y="492.37851"/>
			<point x="292.06119" y="456.50391"/>
			<point x="283.302" y="423.69141" type="curve"/>
			<point x="272.05511" y="381.5607"/>
			<point x="261.8829" y="339.22849"/>
			<point x="253.0408" y="296.52829" type="curve"/>
			<point x="236.1694" y="215.0549"/>
			<point x="218.6694" y="130.9888"/>
			<point x="213.7408" y="47.8204" type="curve"/>
			<point x="211.4642" y="9.40491"/>
			<point x="276.65891" y="-0.47302"/>
		</contour>
	</outline>
</glyph>
<glyph name="J" format="2">
	<unicode hex="004A"/>
	<advance width="600"/>
	<outline>
		<contour>
			<point x="105.9338" y="12.3547" type="curve"/>
			<point x="158.7299" y="-26.6669"/>
			<point x="232.3669" y="-17.6227"/>
			<point x="282.98401" y="20.7794" type="curve"/>
			<point x="341.15231" y="64.9103"/>
			<point x="358.43811" y="140.5914"/>
			<point x="368.58759" y="209.0002" type="curve"/>
			<point x="375.15439" y="253.2623"/>
			<point x="379.58621" y="297.91629"/>
			<point x="380.5939" y="342.67151" type="curve"/>
			<point x="381.4996" y="382.89371"/>
			<point x="370.24661" y="431.3812"/>
			<point x="390.89291" y="467.87659" type="curve"/>
			<point x="398.3588" y="466.97809"/>
			<point x="405.8313" y="466.10172"/>
			<point x="413.32089" y="465.29169" type="curve"/>
			<point x="444.3317" y="461.93909"/>
			<point x="451.65771" y="514.57281"/>
			<point x="420.7355" y="520.0769" type="curve"/>
			<point x="333.75851" y="535.55908"/>
			<point x="242.5464" y="530.48578"/>
			<point x="154.873" y="524.73938" type="curve"/>
			<point x="140.7928" y="523.81653"/>
			<point x="134.09911" y="504.9054"/>
			<point x="147.4207" y="497.22409" type="curve"/>
			<point x="182.61839" y="476.9281"/>
			<point x="222.6691" y="482.45969"/>
			<point x="262.1149" y="480.896" type="curve"/>
			<point x="291.12671" y="479.74609"/>
			<point x="319.80161" y="476.59479"/>
			<point x="348.45639" y="473.09811" type="curve"/>
			<point x="337.16" y="457.28821"/>
			<point x="332.9346" y="436.33609"/>
			<point x="330.6683" y="414.42319" type="curve"/>
			<point x="322.82471" y="338.59131"/>
			<point x="318.44971" y="264.42139"/>
			<point x="300.70071" y="189.8407" type="curve"/>
			<point x="287.16309" y="132.9547"/>
			<point x="262.96689" y="63.4631"/>
			<point x="194.33411" y="58.8025" type="curve"/>
			<point x="119.8981" y="53.7482"/>
			<point x="114.9841" y="137.7771"/>
			<point x="104.892" y="191.86951" type="curve"/>
			<point x="98.1335" y="228.09331"/>
			<point x="43.5956" y="217.98579"/>
			<point x="42.5873" y="183.4375" type="curve"/>
			<point x="40.7916" y="121.9232"/>
			<point x="53.2587" y="51.2878"/>
		</contour>
	</outline>
</glyph>
<glyph name="K" format="2">
	<unicode hex="004B"/>
	<advance width="600"/>
	<outline>
		<contour>
			<point x="169.2639" y="79.9829" type="curve"/>
			<point x="170.6378" y="105.8051"/>
			<point x="172.22169" y="131.6162"/>
			<point x="174.01489" y="157.4127" type="curve"/>
			<point x="177.5995" y="208.98801"/>
			<point x="182.0215" y="260.50479"/>
			<point x="187.2784" y="311.936" type="curve"/>
			<point x="197.16" y="408.61209"/>
			<point x="213.1622" y="504.57639"/>
			<point x="223.3997" y="601.08148" type="curve"/>
			<point x="225.3192" y="619.17853"/>
			<point x="200.1666" y="618.85193"/>
			<point x="194.3958" y="605.00671" type="curve"/>
			<point x="151.95799" y="503.2001"/>
			<point x="144.0594" y="381.96661"/>
			<point x="130.7025" y="273.35391" type="curve"/>
			<point x="123.5846" y="215.47"/>
			<point x="117.5195" y="157.45419"/>
			<point x="112.5134" y="99.3494" type="curve"/>
			<point x="109.5691" y="65.1703"/>
			<point x="92.4445" y="12.6178"/>
			<point x="125.0836" y="-10.9192" type="curve"/>
			<point x="134.6088" y="-17.7881"/>
			<point x="152.06239" y="-15.3369"/>
			<point x="159.6918" y="-6.45386" type="curve"/>
			<point x="160.4761" y="-5.54077"/>
			<point x="161.26041" y="-4.62769"/>
			<point x="162.04469" y="-3.7146" type="curve"/>
			<point x="170.65311" y="6.30798"/>
			<point x="172.7673" y="20.5212"/>
			<point x="165.21851" y="31.3849" type="curve"/>
			<point x="164.3188" y="46.4929"/>
			<point x="168.66209" y="68.6737"/>
		</contour>
		<contour>
			<point x="565.10132" y="134.6545" type="curve"/>
			<point x="470.75259" y="196.8671"/>
			<point x="376.17981" y="256.39471"/>
			<point x="279.8291" y="314.9133" type="curve"/>
			<point x="360.34421" y="391.68329"/>
			<point x="448.06641" y="466.89999"/>
			<point x="517.12708" y="552.80762" type="curve"/>
			<point x="528.96179" y="567.52991"/>
			<point x="513.33917" y="594.76379"/>
			<point x="494.92551" y="581.58081" type="curve"/>
			<point x="393.99661" y="509.32251"/>
			<point x="305.2655" y="413.43991"/>
			<point x="213.5016" y="329.8895" type="curve"/>
			<point x="200.6317" y="318.17139"/>
			<point x="203.2019" y="293.15799"/>
			<point x="219.2511" y="285.27341" type="curve"/>
			<point x="326.6333" y="232.5195"/>
			<point x="433.7048" y="159.2682"/>
			<point x="521.36169" y="77.9663" type="curve"/>
			<point x="559.35907" y="42.7234"/>
			<point x="609.22968" y="105.5566"/>
		</contour>
	</outline>
</glyph>
<glyph name="L" format="2">
	<unicode hex="004C"/>
	<advance width="600"/>
	<outline>
		<contour>
			<point x="531.09918" y="75.7202" type="curve"/>
			<point x="423.65231" y="76.6681"/>
			<point x="316.04739" y="76.5009"/>
			<point x="208.6499" y="72.2461" type="curve"/>
			<point x="233.5938" y="237.5739"/>
			<point x="256.8689" y="405.4187"/>
			<point x="260.50351" y="572.42981" type="curve"/>
			<point x="260.9021" y="590.74402"/>
			<point x="230.88071" y="595.76172"/>
			<point x="227.7399" y="576.8634" type="curve"/>
			<point x="198.5956" y="401.47641"/>
			<point x="178.60291" y="224.78391"/>
			<point x="146.9641" y="49.693" type="curve"/>
			<point x="143.728" y="31.7859"/>
			<point x="154.6924" y="12.5079"/>
			<point x="174.9408" y="12.9669" type="curve"/>
			<point x="293.76099" y="15.6598"/>
			<point x="412.3053" y="16.9769"/>
			<point x="531.09918" y="12.2827" type="curve"/>
			<point x="571.81702" y="10.6732"/>
			<point x="572.04529" y="75.3583"/>
		</contour>
	</outline>
</glyph>
<glyph name="M" format="2">
	<unicode hex="004D"/>
	<advance width="600"/>
	<outline>
		<contour>
			<point x="463.9313" y="559.12482" type="curve"/>
			<point x="457.49881" y="585.76349"/>
			<point x="419.3317" y="589.88397"/>
			<point x="406.02841" y="566.6925" type="curve"/>
			<point x="359.0845" y="484.8584"/>
			<point x="312.34381" y="402.91989"/>
			<point x="265.8667" y="320.82581" type="curve"/>
			<point x="234.76379" y="390.1398"/>
			<point x="198.067" y="456.89151"/>
			<point x="157.32359" y="521.04248" type="curve"/>
			<point x="144.903" y="540.59882"/>
			<point x="112.8613" y="538.23358"/>
			<point x="106.7157" y="514.4281" type="curve"/>
			<point x="65.2954" y="353.9935"/>
			<point x="19.9115" y="193.3905"/>
			<point x="-12.0801" y="30.7733" type="curve"/>
			<point x="-17.2198" y="4.64539"/>
			<point x="19.6368" y="-5.90759"/>
			<point x="27.998" y="19.7241" type="curve"/>
			<point x="72.5177" y="156.2097"/>
			<point x="107.5043" y="296.28659"/>
			<point x="143.4222" y="435.48889" type="curve"/>
			<point x="177.9449" y="372.93329"/>
			<point x="206.38609" y="308.1152"/>
			<point x="230.8429" y="240.061" type="curve"/>
			<point x="239.8132" y="215.10069"/>
			<point x="274.89691" y="207.1375"/>
			<point x="289.37991" y="232.4109" type="curve"/>
			<point x="333.70361" y="309.76071"/>
			<point x="377.6019" y="387.34189"/>
			<point x="421.39401" y="464.98901" type="curve"/>
			<point x="454.65521" y="321.7999"/>
			<point x="481.62839" y="176.9037"/>
			<point x="505.4498" y="31.9818" type="curve"/>
			<point x="513.60468" y="-17.6294"/>
			<point x="592.66302" y="2.62817"/>
			<point x="581.91467" y="53.0621" type="curve"/>
			<point x="545.78741" y="222.5769"/>
			<point x="504.6051" y="390.67871"/>
		</contour>
	</outline>
</glyph>
<glyph name="N" format="2">
	<unicode hex="004E"/>
	<advance width="600"/>
	<outline>
		<contour>
			<point x="469.70209" y="563.77502" type="curve"/>
			<point x="456.2518" y="525.93439"/>
			<point x="460.5072" y="481.93051"/>
			<point x="457.61841" y="441.9873" type="curve"/>
			<point x="454.5123" y="399.03931"/>
			<point x="450.13062" y="356.19141"/>
			<point x="444.29691" y="313.5278" type="curve"/>
			<point x="436.0986" y="253.5681"/>
			<point x="424.84311" y="194.1608"/>
			<point x="411.38431" y="135.2234" type="curve"/>
			<point x="339.44891" y="275.0043"/>
			<point x="306.8042" y="434.16629"/>
			<point x="211.23289" y="561.87561" type="curve"/>
			<point x="198.1232" y="579.39392"/>
			<point x="168.86659" y="579.51349"/>
			<point x="162.3486" y="555.48712" type="curve"/>
			<point x="139.3793" y="470.80869"/>
			<point x="120.7611" y="385.38879"/>
			<point x="108.1396" y="298.54059" type="curve"/>
			<point x="96.3513" y="217.4304"/>
			<point x="82.7972" y="131.00591"/>
			<point x="90.8777" y="49.0643" type="curve"/>
			<point x="92.6685" y="30.9021"/>
			<point x="120.8862" y="23.5901"/>
			<point x="125.2527" y="44.4122" type="curve"/>
			<point x="142.39931" y="126.1774"/>
			<point x="145.9296" y="211.42821"/>
			<point x="159.9438" y="293.9313" type="curve"/>
			<point x="170.7507" y="357.55371"/>
			<point x="183.90691" y="420.79709"/>
			<point x="199.2114" y="483.49911" type="curve"/>
			<point x="282.8912" y="341.54111"/>
			<point x="305.1788" y="170.1862"/>
			<point x="395.39789" y="30.3918" type="curve"/>
			<point x="410.57739" y="6.87134"/>
			<point x="448.74149" y="9.66736"/>
			<point x="456.3757" y="38.3618" type="curve"/>
			<point x="479.70029" y="126.0284"/>
			<point x="497.8894" y="214.71561"/>
			<point x="510.2002" y="304.60999" type="curve"/>
			<point x="516.01868" y="347.09839"/>
			<point x="520.72272" y="389.7095"/>
			<point x="524.0387" y="432.46771" type="curve"/>
			<point x="527.3584" y="475.271"/>
			<point x="535.72632" y="522.28088"/>
			<point x="522.96393" y="563.77502" type="curve"/>
			<point x="514.646" y="590.81848"/>
			<point x="478.71091" y="589.11932"/>
		</contour>
	</outline>
</glyph>
<glyph name="O" format="2">
	<unicode hex="004F"/>
	<advance width="600"/>
	<outline>
		<contour>
			<point x="301.55029" y="563.94592" type="curve"/>
			<point x="256.59671" y="584.1687"/>
			<point x="204.48911" y="553.56018"/>
			<point x="167.7563" y="522.6947" type="curve"/>
			<point x="112.0551" y="475.88989"/>
			<point x="74.1235" y="409.73331"/>
			<point x="62.5299" y="337.8894" type="curve"/>
			<point x="42.2461" y="212.2003"/>
			<point x="112.6544" y="26.8335"/>
			<point x="257.7374" y="13.0853" type="curve"/>
			<point x="425.71289" y="-2.83264"/>
			<point x="515.02197" y="189.657"/>
			<point x="523.33801" y="329.58249" type="curve"/>
			<point x="527.71301" y="403.194"/>
			<point x="515.43091" y="490.47729"/>
			<point x="459.6582" y="544.04108" type="curve"/>
			<point x="417.99799" y="584.0509"/>
			<point x="348.74631" y="599.52271"/>
		</contour>
		<contour>
			<point x="454.88339" y="299.65451" type="curve"/>
			<point x="441.97751" y="204.4507"/>
			<point x="372.30219" y="50.0372"/>
			<point x="250.5688" y="77.2583" type="curve"/>
			<point x="155.7867" y="98.4521"/>
			<point x="112.0673" y="229.9463"/>
			<point x="119.9396" y="314.64719" type="curve"/>
			<point x="126.6803" y="387.17221"/>
			<point x="195.8167" y="524.20038"/>
			<point x="284.90359" y="525.85138" type="curve"/>
			<point x="289.38171" y="511.73889"/>
			<point x="303.13599" y="500.64151"/>
			<point x="319.81201" y="506.28299" type="curve"/>
			<point x="445.98819" y="548.96667"/>
			<point x="466.96289" y="388.75729"/>
		</contour>
	</outline>
</glyph>
<glyph name="P" format="2">
	<unicode hex="0050"/>
	<advance width="600"/>
	<outline>
		<contour>
			<point x="207" y="552" type="curve"/>
			<point x="200" y="561"/>
			<point x="186" y="564"/>
			<point x="180" y="552" type="curve"/>
			<point x="179" y="547"/>
			<point x="177" y="543"/>
			<point x="175" y="538" type="curve"/>
			<point x="174" y="538"/>
			<point x="172" y="537"/>
			<point x="170" y="536" type="curve"/>
			<point x="163" y="532"/>
			<point x="163" y="522"/>
			<point x="168" y="516" type="curve"/>
			<point x="146" y="447"/>
			<point x="142" y="368"/>
			<point x="135" y="298" type="curve"/>
			<point x="127" y="203"/>
			<point x="124" y="107"/>
			<point x="126" y="11" type="curve"/>
			<point x="128" y="-32"/>
			<point x="198" y="-30"/>
			<point x="192" y="11" type="curve"/>
			<point x="187" y="94"/>
			<point x="186" y="177"/>
			<point x="189" y="260" type="curve"/>
			<point x="233" y="207"/>
			<point x="329" y="227"/>
			<point x="388" y="241" type="curve"/>
			<point x="465" y="260"/>
			<point x="513" y="325"/>
			<point x="514" y="404" type="curve"/>
			<point x="516" y="561"/>
			<point x="329" y="594"/>
		</contour>
		<contour>
			<point x="386" y="309" type="curve"/>
			<point x="352" y="300"/>
			<point x="263" y="279"/>
			<point x="235" y="310" type="curve"/>
			<point x="222" y="324"/>
			<point x="204" y="322"/>
			<point x="192" y="312" type="curve"/>
			<point x="197" y="381"/>
			<point x="211" y="452"/>
			<point x="210" y="521" type="curve"/>
			<point x="293" y="541"/>
			<point x="426" y="531"/>
			<point x="451" y="440" type="curve"/>
			<point x="466" y="389"/>
			<point x="438" y="324"/>
		</contour>
	</outline>
</glyph>
<glyph name="Q" format="2">
	<unicode hex="0051"/>
	<advance width="600"/>
	<outline>
		<contour>
			<point x="221.8372" y="39.7009" type="curve"/>
			<point x="304.39389" y="4.88892"/>
			<point x="387.6709" y="44.7284"/>
			<point x="446.2634" y="109.5752" type="curve"/>
			<point x="472.0715" y="87.6758"/>
			<point x="498.7634" y="67.7606"/>
			<point x="528.00598" y="50.0476" type="curve"/>
			<point x="551.91351" y="35.567"/>
			<point x="579.0686" y="69.6704"/>
			<point x="558.15979" y="89.1278" type="curve"/>
			<point x="533.2251" y="112.3322"/>
			<point x="507.38589" y="134.0155"/>
			<point x="481.14499" y="155.5554" type="curve"/>
			<point x="503.84769" y="191.46851"/>
			<point x="519.33533" y="230.73911"/>
			<point x="524.56671" y="267.61539" type="curve"/>
			<point x="544.06012" y="405.022"/>
			<point x="487.3291" y="571.14258"/>
			<point x="332.27719" y="589.05701" type="curve"/>
			<point x="318.9758" y="590.59387"/>
			<point x="310.1178" y="584.76007"/>
			<point x="305.51639" y="576.1084" type="curve"/>
			<point x="272.97491" y="578.03711"/>
			<point x="232.9028" y="556.05713"/>
			<point x="210.20509" y="538.70911" type="curve"/>
			<point x="154.45309" y="496.09619"/>
			<point x="111.3226" y="439.05759"/>
			<point x="88.736" y="372.36819" type="curve"/>
			<point x="47.1619" y="249.6161"/>
			<point x="96.8488" y="92.4048"/>
		</contour>
		<contour>
			<point x="140.9729" y="334.9689" type="curve"/>
			<point x="162.49271" y="423.3356"/>
			<point x="237.6508" y="521.14142"/>
			<point x="333.8147" y="521.35742" type="curve"/>
			<point x="337.07761" y="521.36469"/>
			<point x="339.8584" y="522.20148"/>
			<point x="342.18079" y="523.56317" type="curve"/>
			<point x="449.97559" y="503.31601"/>
			<point x="477.71481" y="359.86511"/>
			<point x="461.43799" y="267.8613" type="curve"/>
			<point x="457.4408" y="245.2673"/>
			<point x="447.58359" y="220.3882"/>
			<point x="433.52719" y="196.5564" type="curve"/>
			<point x="417.60931" y="209.8242"/>
			<point x="400.2496" y="221.17371"/>
			<point x="381.7175" y="221.4032" type="curve"/>
			<point x="373.6261" y="221.5033"/>
			<point x="365.2045" y="214.0417"/>
			<point x="365.85818" y="205.54379" type="curve"/>
			<point x="367.49149" y="184.3121"/>
			<point x="382.478" y="166.1981"/>
			<point x="399.3884" y="150.3485" type="curve"/>
			<point x="353.53271" y="100.2539"/>
			<point x="289.58679" y="69.3921"/>
			<point x="229.7699" y="104.2438" type="curve"/>
			<point x="151.72301" y="149.7168"/>
			<point x="120.2856" y="250.0238"/>
		</contour>
	</outline>
</glyph>
<glyph name="R" format="2">
	<unicode hex="0052"/>
	<advance width="600"/>
	<outline>
		<contour>
			<point x="403" y="569" type="curve"/>
			<point x="340" y="596"/>
			<point x="269" y="601"/>
			<point x="208" y="569" type="curve"/>
			<point x="201" y="575"/>
			<point x="188" y="573"/>
			<point x="185" y="563" type="curve"/>
			<point x="152" y="475"/>
			<point x="141" y="375"/>
			<point x="126" y="282" type="curve"/>
			<point x="113" y="194"/>
			<point x="90" y="98"/>
			<point x="93" y="8" type="curve"/>
			<point x="94" y="-22"/>
			<point x="140" y="-31"/>
			<point x="147" y="1" type="curve"/>
			<point x="168" y="87"/>
			<point x="168" y="182"/>
			<point x="179" y="270" type="curve"/>
			<point x="182" y="266"/>
			<point x="187" y="262"/>
			<point x="193" y="259" type="curve"/>
			<point x="239" y="241"/>
			<point x="297" y="238"/>
			<point x="353" y="250" type="curve"/>
			<point x="370" y="193"/>
			<point x="395" y="137"/>
			<point x="416" y="82" type="curve"/>
			<point x="428" y="53"/>
			<point x="433" y="1"/>
			<point x="473" y="-1" type="curve"/>
			<point x="495" y="-1"/>
			<point x="510" y="21"/>
			<point x="505" y="41" type="curve"/>
			<point x="505" y="42"/>
			<point x="505" y="43"/>
			<point x="504" y="44" type="curve"/>
			<point x="503" y="50"/>
			<point x="500" y="55"/>
			<point x="495" y="59" type="curve"/>
			<point x="490" y="69"/>
			<point x="485" y="79"/>
			<point x="480" y="89" type="curve"/>
			<point x="469" y="110"/>
			<point x="459" y="131"/>
			<point x="448" y="152" type="curve"/>
			<point x="430" y="189"/>
			<point x="412" y="226"/>
			<point x="391" y="261" type="curve"/>
			<point x="467" y="288"/>
			<point x="530" y="344"/>
			<point x="533" y="427" type="curve"/>
			<point x="537" y="502"/>
			<point x="464" y="542"/>
		</contour>
		<contour>
			<point x="468" y="398" type="curve"/>
			<point x="418" y="309"/>
			<point x="298" y="293"/>
			<point x="210" y="321" type="curve"/>
			<point x="200" y="324"/>
			<point x="191" y="323"/>
			<point x="185" y="319" type="curve"/>
			<point x="195" y="389"/>
			<point x="208" y="460"/>
			<point x="211" y="530" type="curve"/>
			<point x="211" y="530"/>
			<point x="211" y="531"/>
			<point x="211" y="531" type="curve"/>
			<point x="212" y="552"/>
			<point x="274" y="553"/>
			<point x="289" y="553" type="curve"/>
			<point x="321" y="551"/>
			<point x="351" y="542"/>
			<point x="380" y="528" type="curve"/>
			<point x="431" y="504"/>
			<point x="505" y="465"/>
		</contour>
	</outline>
</glyph>
<glyph name="S" format="2">
	<unicode hex="0053"/>
	<advance width="600"/>
	<outline>
		<contour>
			<point x="332" y="10" type="curve"/>
			<point x="414" y="34"/>
			<point x="521" y="106"/>
			<point x="470" y="204" type="curve"/>
			<point x="447" y="250"/>
			<point x="403" y="285"/>
			<point x="360" y="312" type="curve"/>
			<point x="314" y="341"/>
			<point x="259" y="353"/>
			<point x="212" y="380" type="curve"/>
			<point x="165" y="408"/>
			<point x="181" y="448"/>
			<point x="210" y="484" type="curve"/>
			<point x="228" y="507"/>
			<point x="249" y="532"/>
			<point x="274" y="547" type="curve"/>
			<point x="352" y="594"/>
			<point x="418" y="535"/>
			<point x="450" y="467" type="curve"/>
			<point x="456" y="455"/>
			<point x="472" y="463"/>
			<point x="474" y="474" type="curve"/>
			<point x="487" y="578"/>
			<point x="370" y="645"/>
			<point x="279" y="619" type="curve"/>
			<point x="198" y="595"/>
			<point x="80" y="474"/>
			<point x="119" y="383" type="curve"/>
			<point x="137" y="342"/>
			<point x="179" y="321"/>
			<point x="219" y="305" type="curve"/>
			<point x="277" y="282"/>
			<point x="335" y="259"/>
			<point x="381" y="214" type="curve"/>
			<point x="409" y="187"/>
			<point x="434" y="154"/>
			<point x="402" y="120" type="curve"/>
			<point x="382" y="99"/>
			<point x="350" y="84"/>
			<point x="323" y="76" type="curve"/>
			<point x="225" y="47"/>
			<point x="196" y="130"/>
			<point x="154" y="197" type="curve"/>
			<point x="136" y="226"/>
			<point x="88" y="208"/>
			<point x="98" y="174" type="curve"/>
			<point x="128" y="69"/>
			<point x="216" y="-24"/>
		</contour>
	</outline>
</glyph>
<glyph name="T" format="2">
	<unicode hex="0054"/>
	<advance width="600"/>
	<outline>
		<contour>
			<point x="101.3831" y="543.86719" type="curve"/>
			<point x="86.0602" y="541.20728"/>
			<point x="90.9204" y="518.98383"/>
			<point x="104.8724" y="518.08588" type="curve"/>
			<point x="229.54649" y="510.05981"/>
			<point x="354.96771" y="514.93469"/>
			<point x="479.85779" y="506.24759" type="curve"/>
			<point x="513.34662" y="503.91779"/>
			<point x="513.84338" y="557.90948"/>
			<point x="479.85779" y="558.74762" type="curve"/>
			<point x="355.1355" y="561.82251"/>
			<point x="224.73331" y="565.27887"/>
		</contour>
		<contour>
			<point x="294.48361" y="17.7783" type="curve"/>
			<point x="304.90359" y="98.3557"/>
			<point x="302.79169" y="180.9998"/>
			<point x="312.13681" y="262.0477" type="curve"/>
			<point x="321.4093" y="342.46521"/>
			<point x="338.3002" y="421.85849"/>
			<point x="346.70651" y="502.33401" type="curve"/>
			<point x="347.39139" y="508.88849"/>
			<point x="336.59421" y="511.9397"/>
			<point x="333.96851" y="505.7843" type="curve"/>
			<point x="301.6821" y="430.10129"/>
			<point x="284.39511" y="348.4747"/>
			<point x="269.62891" y="267.8009" type="curve"/>
			<point x="254.93291" y="187.5116"/>
			<point x="237.55" y="99.422"/>
			<point x="241.4368" y="17.7783" type="curve"/>
			<point x="243.1042" y="-17.243"/>
			<point x="290.2063" y="-15.3009"/>
		</contour>
	</outline>
</glyph>
<glyph name="U" format="2">
	<unicode hex="0055"/>
	<advance width="600"/>
	<outline>
		<contour>
			<point x="496.2915" y="545.40411" type="curve"/>
			<point x="499.60449" y="445.6561"/>
			<point x="503.57669" y="343.30441"/>
			<point x="473.9014" y="246.7352" type="curve"/>
			<point x="447.2186" y="159.9023"/>
			<point x="379.46591" y="50.8777"/>
			<point x="276.8616" y="48.9124" type="curve"/>
			<point x="158.87511" y="46.6522"/>
			<point x="163.2574" y="181.8817"/>
			<point x="161.6205" y="266.67661" type="curve"/>
			<point x="160.6635" y="316.2262"/>
			<point x="163.31419" y="365.5444"/>
			<point x="167.7905" y="414.8743" type="curve"/>
			<point x="171.7188" y="458.17139"/>
			<point x="185.3662" y="503.19949"/>
			<point x="178.59309" y="546.25427" type="curve"/>
			<point x="176.7755" y="557.80878"/>
			<point x="160.9796" y="557.33759"/>
			<point x="155.60361" y="549.25897" type="curve"/>
			<point x="125.1617" y="503.51682"/>
			<point x="122.6074" y="431.8121"/>
			<point x="117.6233" y="377.93091" type="curve"/>
			<point x="111.3574" y="310.19711"/>
			<point x="110.9491" y="241.8127"/>
			<point x="116.3953" y="174.0088" type="curve"/>
			<point x="123.8879" y="80.7184"/>
			<point x="164.19679" y="-1.58752"/>
			<point x="270.17941" y="-4.33044" type="curve"/>
			<point x="379.67349" y="-7.1637"/>
			<point x="465.1514" y="88.0981"/>
			<point x="505.87589" y="180.3949" type="curve"/>
			<point x="556.53381" y="295.20569"/>
			<point x="553.87451" y="422.54269"/>
			<point x="549.88531" y="545.40411" type="curve"/>
			<point x="548.76831" y="579.80652"/>
			<point x="495.1434" y="579.95422"/>
		</contour>
	</outline>
</glyph>
<glyph name="V" format="2">
	<unicode hex="0056"/>
	<advance width="600"/>
	<outline>
		<contour>
			<point x="296.59119" y="32.2906" type="curve"/>
			<point x="361.2067" y="198.34531"/>
			<point x="427.1008" y="366.4624"/>
			<point x="483.0072" y="535.62189" type="curve"/>
			<point x="491.7963" y="562.21503"/>
			<point x="448.33371" y="581.43011"/>
			<point x="437.0282" y="555.0061" type="curve"/>
			<point x="377.3248" y="415.47119"/>
			<point x="323.32889" y="271.93179"/>
			<point x="270.5798" y="129.0607" type="curve"/>
			<point x="226.4539" y="270.26981"/>
			<point x="187.5946" y="413.01819"/>
			<point x="150.5981" y="556.28601" type="curve"/>
			<point x="144.87849" y="578.43689"/>
			<point x="113.0334" y="568.80432"/>
			<point x="116.8488" y="546.9812" type="curve"/>
			<point x="147.28149" y="372.91321"/>
			<point x="190.5762" y="201.7072"/>
			<point x="240.603" y="32.2906" type="curve"/>
			<point x="249.2462" y="3.02124"/>
			<point x="286.58331" y="6.57043"/>
		</contour>
	</outline>
</glyph>
<glyph name="W" format="2">
	<unicode hex="0057"/>
	<advance width="600"/>
	<outline>
		<contour>
			<point x="525.08301" y="499.28409" type="curve"/>
			<point x="511.95129" y="373.82932"/>
			<point x="473.28979" y="256.23959"/>
			<point x="432.771" y="138.2556" type="curve"/>
			<point x="389.18701" y="246.1328"/>
			<point x="348.87509" y="356.8591"/>
			<point x="322.48901" y="469.4794" type="curve"/>
			<point x="317.06909" y="492.61169"/>
			<point x="286.6626" y="488.60779"/>
			<point x="279.48059" y="469.4794" type="curve"/>
			<point x="236.40871" y="354.76749"/>
			<point x="193.85381" y="241.66141"/>
			<point x="142.464" y="130.8997" type="curve"/>
			<point x="140.2222" y="149.88341"/>
			<point x="139.4904" y="169.2578"/>
			<point x="137.1674" y="186.2061" type="curve"/>
			<point x="132.226" y="222.254"/>
			<point x="127.2852" y="258.30261"/>
			<point x="122.3438" y="294.35059" type="curve"/>
			<point x="112.0215" y="369.66061"/>
			<point x="100.8691" y="444.67041"/>
			<point x="88.3966" y="519.65698" type="curve"/>
			<point x="85.3864" y="537.75513"/>
			<point x="54.6344" y="533.71948"/>
			<point x="56.1707" y="515.29541" type="curve"/>
			<point x="63.313" y="429.60629"/>
			<point x="72.3077" y="344.28339"/>
			<point x="81.9012" y="258.83609" type="curve"/>
			<point x="86.3312" y="219.3811"/>
			<point x="90.7611" y="179.92551"/>
			<point x="95.191" y="140.4706" type="curve"/>
			<point x="98.739" y="108.8672"/>
			<point x="99.1681" y="77.2351"/>
			<point x="115.5267" y="49.2786" type="curve"/>
			<point x="124.5135" y="33.9197"/>
			<point x="150.44009" y="31.958"/>
			<point x="158.9001" y="49.2786" type="curve"/>
			<point x="211.8896" y="157.76311"/>
			<point x="262.3486" y="270.96741"/>
			<point x="300.53159" y="386.52039" type="curve"/>
			<point x="333.6969" y="273.548"/>
			<point x="366.0773" y="160.9772"/>
			<point x="407.77591" y="50.2905" type="curve"/>
			<point x="417.79239" y="23.7024"/>
			<point x="452.89001" y="22.9742"/>
			<point x="462.6886" y="50.2905" type="curve"/>
			<point x="514.89258" y="195.8331"/>
			<point x="560.271" y="345.64151"/>
			<point x="580.31738" y="499.28409" type="curve"/>
			<point x="584.85962" y="534.09418"/>
			<point x="528.7854" y="534.65033"/>
		</contour>
	</outline>
</glyph>
<glyph name="X" format="2">
	<unicode hex="0058"/>
	<advance width="600"/>
	<outline>
		<contour>
			<point x="489.49579" y="68.2245" type="curve"/>
			<point x="489.3335" y="68.4973"/>
			<point x="489.08511" y="68.6615"/>
			<point x="488.91422" y="68.9246" type="curve"/>
			<point x="441.07419" y="151.28419"/>
			<point x="370.30151" y="223.3344"/>
			<point x="310.19101" y="296.00159" type="curve"/>
			<point x="308.34659" y="298.2312"/>
			<point x="306.52161" y="300.51331"/>
			<point x="304.68021" y="302.75269" type="curve"/>
			<point x="325.75681" y="334.82059"/>
			<point x="347.71481" y="366.37079"/>
			<point x="370.84781" y="396.93359" type="curve"/>
			<point x="402.4176" y="438.64499"/>
			<point x="441.8811" y="476.3165"/>
			<point x="469.43301" y="520.7074" type="curve"/>
			<point x="478.25989" y="534.92859"/>
			<point x="460.30151" y="554.03021"/>
			<point x="445.86359" y="544.27612" type="curve"/>
			<point x="376.96591" y="497.7301"/>
			<point x="318.13599" y="420.05859"/>
			<point x="268.94229" y="347.24609" type="curve"/>
			<point x="221.0352" y="408.4534"/>
			<point x="176.1261" y="473.20801"/>
			<point x="142.16251" y="542.37921" type="curve"/>
			<point x="142.1344" y="542.27228"/>
			<point x="142.1069" y="542.16608"/>
			<point x="142.0789" y="542.05933" type="curve"/>
			<point x="138.40581" y="548.07617"/>
			<point x="131.048" y="552.59399"/>
			<point x="123.9478" y="549.79187" type="curve"/>
			<point x="62.3419" y="525.47552"/>
			<point x="198.5864" y="347.6947"/>
			<point x="219.92551" y="318.76279" type="curve"/>
			<point x="225.2319" y="311.5686"/>
			<point x="230.636" y="304.45801"/>
			<point x="235.96919" y="297.28641" type="curve"/>
			<point x="175.6799" y="204.3732"/>
			<point x="126.3678" y="105.553"/>
			<point x="86.6541" y="2.20276" type="curve"/>
			<point x="73.3887" y="-32.3187"/>
			<point x="128.8837" y="-47.2595"/>
			<point x="142.02451" y="-13.0621" type="curve"/>
			<point x="177.1387" y="78.3185"/>
			<point x="220.2307" y="166.5033"/>
			<point x="271.26831" y="250.033" type="curve"/>
			<point x="329.19431" y="173.15311"/>
			<point x="387.9126" y="96.9727"/>
			<point x="444.54651" y="19.0887" type="curve"/>
			<point x="468.18121" y="-13.4137"/>
			<point x="517.30957" y="14.0466"/>
			<point x="498.94839" y="50.8881" type="curve"/>
			<point x="496.2244" y="56.8994"/>
			<point x="493.07309" y="62.6782"/>
		</contour>
	</outline>
</glyph>
<glyph name="Y" format="2">
	<unicode hex="0059"/>
	<advance width="600"/>
	<outline>
		<contour>
			<point x="276.08279" y="407.81131" type="curve"/>
			<point x="265.24899" y="426.63391"/>
			<point x="254.51289" y="445.51151"/>
			<point x="243.8629" y="464.43851" type="curve"/>
			<point x="221.25729" y="504.61301"/>
			<point x="198.9124" y="544.93347"/>
			<point x="176.311" y="585.10858" type="curve"/>
			<point x="165.9882" y="606.32867"/>
			<point x="125.2655" y="594.43732"/>
			<point x="138.29961" y="564.30658" type="curve"/>
			<point x="163.0341" y="507.12769"/>
			<point x="189.5502" y="450.74649"/>
			<point x="216.8616" y="394.7583" type="curve"/>
			<point x="231.2744" y="365.21179"/>
			<point x="245.78371" y="305.33749"/>
			<point x="287.07581" y="305.86551" type="curve"/>
			<point x="287.29001" y="305.86789"/>
			<point x="287.50369" y="305.93259"/>
			<point x="287.7179" y="305.94061" type="curve"/>
			<point x="284.44089" y="270.28989"/>
			<point x="281.65039" y="234.6075"/>
			<point x="278.99719" y="198.8123" type="curve"/>
			<point x="274.34329" y="136.02361"/>
			<point x="263.86539" y="70.0494"/>
			<point x="268.10181" y="7.22717" type="curve"/>
			<point x="270.16779" y="-23.4119"/>
			<point x="320.01041" y="-35.1526"/>
			<point x="325.57251" y="-0.55054" type="curve"/>
			<point x="341.87439" y="100.8643"/>
			<point x="334.53741" y="211.01559"/>
			<point x="335.56091" y="313.7634" type="curve"/>
			<point x="335.81851" y="339.65881"/>
			<point x="336.4606" y="354.6301"/>
			<point x="351.09741" y="376.90369" type="curve"/>
			<point x="363.28799" y="395.45349"/>
			<point x="378.34589" y="410.31189"/>
			<point x="393.90869" y="426.00949" type="curve"/>
			<point x="432.77951" y="465.21909"/>
			<point x="471.3501" y="504.0607"/>
			<point x="507.74481" y="545.58411" type="curve"/>
			<point x="520.29718" y="559.9054"/>
			<point x="503.07681" y="587.20642"/>
			<point x="485.87521" y="573.92822" type="curve"/>
			<point x="440.79471" y="539.12842"/>
			<point x="398.11221" y="502.17899"/>
			<point x="355.31009" y="464.60751" type="curve"/>
			<point x="319.55569" y="433.22198"/>
			<point x="299.74429" y="415.04761"/>
			<point x="294.10159" y="368.5303" type="curve"/>
			<point x="292.6373" y="368.6615"/>
			<point x="291.16641" y="368.77811"/>
			<point x="289.60629" y="368.57849" type="curve"/>
			<point x="301.71329" y="370.12759"/>
			<point x="281.42941" y="398.52051"/>
		</contour>
	</outline>
</glyph>
<glyph name="Z" format="2">
	<unicode hex="005A"/>
	<advance width="600"/>
	<outline>
		<contour>
			<point x="518.37592" y="59.4397" type="curve"/>
			<point x="405.58649" y="48.3508"/>
			<point x="293.0939" y="39.9823"/>
			<point x="179.8981" y="38.634" type="curve"/>
			<point x="278.8678" y="201.94521"/>
			<point x="381.0712" y="363.74939"/>
			<point x="514.21021" y="501.88351" type="curve"/>
			<point x="530.44427" y="518.72681"/>
			<point x="517.87903" y="544.14612"/>
			<point x="496.03091" y="545.77148" type="curve"/>
			<point x="375.6293" y="554.72662"/>
			<point x="250.2374" y="551.00098"/>
			<point x="132.6581" y="521.10229" type="curve"/>
			<point x="108.8885" y="515.05798"/>
			<point x="113.0292" y="473.8031"/>
			<point x="138.6188" y="477.0593" type="curve"/>
			<point x="239.7205" y="489.92609"/>
			<point x="338.7244" y="499.35611"/>
			<point x="439.83521" y="496.87131" type="curve"/>
			<point x="312.31812" y="353.65479"/>
			<point x="211.6602" y="189.7626"/>
			<point x="112.7325" y="25.8606" type="curve"/>
			<point x="102.6782" y="9.20227"/>
			<point x="115.6549" y="-12.3029"/>
			<point x="134.6906" y="-12.4042" type="curve"/>
			<point x="262.677" y="-13.0835"/>
			<point x="391.11081" y="-9.46594"/>
			<point x="518.37592" y="4.7522" type="curve"/>
			<point x="552.82532" y="8.60046"/>
			<point x="553.59308" y="62.9016"/>
		</contour>
	</outline>
</glyph>
<glyph name="a" format="2">
	<unicode hex="0061"/>
	<advance width="600"/>
	<outline>
		<contour>
			<point x="512" y="93" type="curve"/>
			<point x="429" y="120"/>
			<point x="437" y="220"/>
			<point x="445" y="289" type="curve"/>
			<point x="447" y="302"/>
			<point x="439" y="310"/>
			<point x="428" y="312" type="curve"/>
			<point x="429" y="334"/>
			<point x="424" y="354"/>
			<point x="408" y="374" type="curve"/>
			<point x="381" y="408"/>
			<point x="332" y="414"/>
			<point x="292" y="402" type="curve"/>
			<point x="187" y="370"/>
			<point x="131" y="230"/>
			<point x="124" y="131" type="curve"/>
			<point x="121" y="89"/>
			<point x="124" y="39"/>
			<point x="160" y="11" type="curve"/>
			<point x="196" y="-16"/>
			<point x="247" y="-6"/>
			<point x="283" y="16" type="curve"/>
			<point x="337" y="48"/>
			<point x="373" y="99"/>
			<point x="399" y="156" type="curve"/>
			<point x="410" y="105"/>
			<point x="439" y="62"/>
			<point x="499" y="47" type="curve"/>
			<point x="529" y="40"/>
			<point x="541" y="83"/>
		</contour>
		<contour>
			<point x="327" y="129" type="curve"/>
			<point x="294" y="78"/>
			<point x="176" y="-15"/>
			<point x="172" y="106" type="curve"/>
			<point x="170" y="180"/>
			<point x="201" y="261"/>
			<point x="251" y="316" type="curve"/>
			<point x="277" y="345"/>
			<point x="313" y="372"/>
			<point x="354" y="358" type="curve"/>
			<point x="379" y="350"/>
			<point x="393" y="327"/>
			<point x="400" y="302" type="curve"/>
			<point x="399" y="300"/>
			<point x="397" y="298"/>
			<point x="397" y="296" type="curve"/>
			<point x="379" y="238"/>
			<point x="361" y="179"/>
		</contour>
	</outline>
</glyph>
<glyph name="b" format="2">
	<unicode hex="0062"/>
	<advance width="600"/>
	<outline>
		<contour>
			<point x="279.97131" y="577.12952" type="curve"/>
			<point x="242.90221" y="452.7832"/>
			<point x="214.3109" y="325.57071"/>
			<point x="190.1593" y="197.82291" type="curve"/>
			<point x="171.2494" y="156.0376"/>
			<point x="162.7576" y="109.7217"/>
			<point x="166.43739" y="63.2562" type="curve"/>
			<point x="166.748" y="59.3298"/>
			<point x="168.05791" y="55.7983"/>
			<point x="169.9402" y="52.6404" type="curve"/>
			<point x="168.761" y="48.6951"/>
			<point x="168.3728" y="44.5099"/>
			<point x="169.1223" y="40.4169" type="curve"/>
			<point x="169.5807" y="37.9144"/>
			<point x="170.0385" y="35.412"/>
			<point x="170.4968" y="32.9089" type="curve"/>
			<point x="172.14481" y="23.9075"/>
			<point x="181.06081" y="15.9064"/>
			<point x="189.6521" y="13.7537" type="curve"/>
			<point x="226.79871" y="4.4458"/>
			<point x="269.01059" y="25.899"/>
			<point x="303.0054" y="40.0598" type="curve"/>
			<point x="349.15948" y="59.2859"/>
			<point x="394.24991" y="83.4924"/>
			<point x="433.76651" y="114.3329" type="curve"/>
			<point x="505.84351" y="170.58591"/>
			<point x="488.77991" y="247.8235"/>
			<point x="430.07932" y="308.37161" type="curve"/>
			<point x="375.1514" y="365.02811"/>
			<point x="305.271" y="333.53641"/>
			<point x="254.8578" y="287.1796" type="curve"/>
			<point x="272.37549" y="381.11761"/>
			<point x="291.80789" y="474.6796"/>
			<point x="311.61191" y="568.40698" type="curve"/>
			<point x="315.9552" y="588.96179"/>
			<point x="286.048" y="597.5116"/>
		</contour>
		<contour>
			<point x="247.5659" y="196.9324" type="curve"/>
			<point x="270.2319" y="234.8279"/>
			<point x="334.31271" y="310.73239"/>
			<point x="387.1326" y="276.92081" type="curve"/>
			<point x="407.6886" y="263.76221"/>
			<point x="435.57251" y="216.6602"/>
			<point x="429.74979" y="192.356" type="curve"/>
			<point x="422.9852" y="164.11929"/>
			<point x="381.7218" y="143.0426"/>
			<point x="358.3429" y="129.3726" type="curve"/>
			<point x="333.6554" y="114.9365"/>
			<point x="307.78201" y="102.3334"/>
			<point x="281.05899" y="92.1167" type="curve"/>
			<point x="274.75461" y="89.7064"/>
			<point x="239.1998" y="74.1302"/>
			<point x="218.6627" y="68.8989" type="curve"/>
			<point x="223.4644" y="102.7917"/>
			<point x="228.6841" y="136.5802"/>
			<point x="234.2493" y="170.2869" type="curve"/>
			<point x="238.0524" y="179.34331"/>
			<point x="242.3792" y="188.2605"/>
		</contour>
	</outline>
</glyph>
<glyph name="c" format="2">
	<unicode hex="0063"/>
	<advance width="600"/>
	<outline>
		<contour>
			<point x="249.77721" y="316.22009" type="curve"/>
			<point x="273.25259" y="346.05161"/>
			<point x="301.9238" y="375.08969"/>
			<point x="343.48999" y="364.4769" type="curve"/>
			<point x="373.479" y="356.8201"/>
			<point x="401.29999" y="330.4523"/>
			<point x="416.63879" y="304.0863" type="curve"/>
			<point x="424.14371" y="291.18591"/>
			<point x="443.21719" y="299.9744"/>
			<point x="440.1282" y="313.98929" type="curve"/>
			<point x="425.15991" y="381.90729"/>
			<point x="348.60599" y="437.66422"/>
			<point x="278.4332" y="407.30591" type="curve"/>
			<point x="197.25459" y="372.18631"/>
			<point x="144.4257" y="252.0416"/>
			<point x="124.4897" y="172.168" type="curve"/>
			<point x="107.0667" y="102.3596"/>
			<point x="100.188" y="-3.76282"/>
			<point x="198.47659" y="-6.3623" type="curve"/>
			<point x="294.4678" y="-8.90076"/>
			<point x="395.87399" y="45.8484"/>
			<point x="467.32059" y="105.2197" type="curve"/>
			<point x="492.73129" y="126.3354"/>
			<point x="456.58389" y="161.134"/>
			<point x="431.358" y="141.18291" type="curve"/>
			<point x="382.86801" y="102.8326"/>
			<point x="328.13171" y="73.4808"/>
			<point x="268.30869" y="57.2528" type="curve"/>
			<point x="233.7793" y="47.8857"/>
			<point x="179.0338" y="28.0121"/>
			<point x="163.9929" y="80.9631" type="curve"/>
			<point x="157.0966" y="105.2417"/>
			<point x="169.1754" y="142.64101"/>
			<point x="175.41631" y="166.5192" type="curve"/>
			<point x="189.6375" y="220.9314"/>
			<point x="215.01401" y="272.04349"/>
		</contour>
	</outline>
</glyph>
<glyph name="d" format="2">
	<unicode hex="0064"/>
	<advance width="600"/>
	<outline>
		<contour>
			<point x="448.53821" y="571.27557" type="curve"/>
			<point x="426.9556" y="536.73029"/>
			<point x="424.0961" y="490.09891"/>
			<point x="418.17749" y="450.91431" type="curve"/>
			<point x="413.90689" y="422.64401"/>
			<point x="410.2301" y="394.2627"/>
			<point x="407.52869" y="365.7941" type="curve"/>
			<point x="392.74051" y="379.79309"/>
			<point x="373.17319" y="389.7327"/>
			<point x="352.05569" y="393.79459" type="curve"/>
			<point x="284.2944" y="406.82919"/>
			<point x="217.1722" y="363.91422"/>
			<point x="174.1357" y="314.8248" type="curve"/>
			<point x="102.0203" y="232.5665"/>
			<point x="48.5144" y="22.7106"/>
			<point x="218.3759" y="23.2947" type="curve"/>
			<point x="291.0834" y="23.5443"/>
			<point x="345.8826" y="82.959"/>
			<point x="387.15759" y="135.84531" type="curve"/>
			<point x="396.31961" y="147.58479"/>
			<point x="404.9664" y="159.68021"/>
			<point x="413.3606" y="171.9391" type="curve"/>
			<point x="421.13589" y="131.6058"/>
			<point x="433.7634" y="92.2333"/>
			<point x="452.75269" y="54.1644" type="curve"/>
			<point x="467.30099" y="24.9988"/>
			<point x="512.01782" y="50.7782"/>
			<point x="496.66809" y="79.8346" type="curve"/>
			<point x="470.86609" y="128.6768"/>
			<point x="457.21069" y="180.8112"/>
			<point x="451.72971" y="234.3903" type="curve"/>
			<point x="471.64429" y="270.92529"/>
			<point x="488.48389" y="309.13879"/>
			<point x="501.991" y="348.6572" type="curve"/>
			<point x="523.88428" y="412.71179"/>
			<point x="549.74182" y="506.52649"/>
			<point x="534.55322" y="574.51898" type="curve"/>
			<point x="522.84851" y="626.91589"/>
			<point x="469.70401" y="605.15259"/>
		</contour>
		<contour>
			<point x="294.24069" y="121.4093" type="curve"/>
			<point x="265.65311" y="95.1703"/>
			<point x="205.78" y="60.4932"/>
			<point x="172.3877" y="101.2646" type="curve"/>
			<point x="144.67101" y="135.10561"/>
			<point x="174.22549" y="204.44031"/>
			<point x="191.3629" y="235.5334" type="curve"/>
			<point x="227.1442" y="300.45349"/>
			<point x="352.05511" y="395.62009"/>
			<point x="403.69931" y="308.60529" type="curve"/>
			<point x="403.26599" y="295.44681"/>
			<point x="403.14761" y="282.34619"/>
			<point x="403.418" y="269.31879" type="curve"/>
			<point x="374.9213" y="214.4342"/>
			<point x="338.52661" y="162.0563"/>
		</contour>
		<contour>
			<point x="467.30099" y="443.90079" type="curve"/>
			<point x="464.08511" y="430.30331"/>
			<point x="460.44681" y="416.7749"/>
			<point x="456.5863" y="403.30511" type="curve"/>
			<point x="462.43289" y="454.44641"/>
			<point x="471.87189" y="516.27808"/>
			<point x="484.76501" y="543.60052" type="curve"/>
			<point x="483.33621" y="534.2511"/>
			<point x="481.25851" y="525.0116"/>
			<point x="480.3418" y="517.80518" type="curve"/>
			<point x="477.17529" y="492.9187"/>
			<point x="473.07681" y="468.32031"/>
		</contour>
	</outline>
</glyph>
<glyph name="e" format="2">
	<unicode hex="0065"/>
	<advance width="600"/>
	<outline>
		<contour>
			<point x="422.9303" y="353.9075" type="curve"/>
			<point x="424.55319" y="397.37729"/>
			<point x="396.32391" y="431.44531"/>
			<point x="354.89139" y="441.71939" type="curve"/>
			<point x="306.11761" y="453.81409"/>
			<point x="259.6185" y="427.08191"/>
			<point x="228.55409" y="391.01321" type="curve"/>
			<point x="161.89211" y="313.6127"/>
			<point x="132.4707" y="178.41859"/>
			<point x="197.9803" y="91.6168" type="curve"/>
			<point x="278.29651" y="-14.8047"/>
			<point x="407.08191" y="41.6199"/>
			<point x="481.11761" y="122.7649" type="curve"/>
			<point x="498.15491" y="141.4386"/>
			<point x="475.44489" y="175.9576"/>
			<point x="452.62079" y="159.69791" type="curve"/>
			<point x="398.797" y="121.3544"/>
			<point x="321.74191" y="51.8353"/>
			<point x="257.03" y="110.0531" type="curve"/>
			<point x="237.1991" y="127.8937"/>
			<point x="226.2384" y="151.3055"/>
			<point x="221.5887" y="176.65041" type="curve"/>
			<point x="313.26971" y="186.5833"/>
			<point x="419.08569" y="250.9174"/>
		</contour>
		<contour>
			<point x="357.4274" y="310.7428" type="curve"/>
			<point x="331.40079" y="257.6825"/>
			<point x="276.27689" y="217.5195"/>
			<point x="218.9697" y="204.19679" type="curve"/>
			<point x="218.4113" y="237.29739"/>
			<point x="226.4801" y="271.44958"/>
			<point x="238.44791" y="299.46231" type="curve"/>
			<point x="250.4315" y="327.51221"/>
			<point x="267.5177" y="356.35739"/>
			<point x="293.25989" y="373.7421" type="curve"/>
			<point x="307.46091" y="383.3331"/>
			<point x="328.63101" y="394.20349"/>
			<point x="346.15909" y="385.8923" type="curve"/>
			<point x="381.1011" y="369.32431"/>
			<point x="369.29379" y="334.93469"/>
		</contour>
	</outline>
</glyph>
<glyph name="f" format="2">
	<unicode hex="0066"/>
	<advance width="600"/>
	<outline>
		<contour>
			<point x="138.0029" y="-227.01421" type="curve"/>
			<point x="189.7968" y="-259.44089"/>
			<point x="241.89211" y="-210.8661"/>
			<point x="264.21689" y="-165.20081" type="curve"/>
			<point x="297.2034" y="-97.7283"/>
			<point x="306.13708" y="-14.2413"/>
			<point x="315.94971" y="59.3634" type="curve"/>
			<point x="326.81149" y="140.8356"/>
			<point x="331.98911" y="222.69839"/>
			<point x="337.11731" y="304.66669" type="curve"/>
			<point x="386.79871" y="308.04321"/>
			<point x="436.55399" y="308.95389"/>
			<point x="486.2085" y="312.6489" type="curve"/>
			<point x="517.61719" y="314.98721"/>
			<point x="518.12561" y="360.3595"/>
			<point x="486.2085" y="361.86771" type="curve"/>
			<point x="437.47861" y="364.17111"/>
			<point x="389.0491" y="361.2988"/>
			<point x="340.54019" y="356.93481" type="curve"/>
			<point x="342.53659" y="386.72299"/>
			<point x="344.67899" y="416.50211"/>
			<point x="347.45609" y="446.22861" type="curve"/>
			<point x="349.17361" y="464.60999"/>
			<point x="351.05591" y="482.97791"/>
			<point x="353.25009" y="501.3092" type="curve"/>
			<point x="352.84549" y="497.92789"/>
			<point x="359.151" y="590.72333"/>
			<point x="379.94571" y="575.18738" type="curve"/>
			<point x="389.66489" y="567.92657"/>
			<point x="400.38879" y="583.27271"/>
			<point x="392.53781" y="591.50702" type="curve"/>
			<point x="354.27979" y="631.62958"/>
			<point x="330.4718" y="574.06622"/>
			<point x="324.38049" y="542.43103" type="curve"/>
			<point x="312.32849" y="479.83701"/>
			<point x="304.44089" y="416.46359"/>
			<point x="297.39319" y="353.07861" type="curve"/>
			<point x="260.56091" y="350.0018"/>
			<point x="222.0667" y="346.24509"/>
			<point x="190.061" y="329.25049" type="curve"/>
			<point x="177.9669" y="322.8284"/>
			<point x="180.2222" y="302.15939"/>
			<point x="193.9801" y="299.26389" type="curve"/>
			<point x="225.61459" y="292.6062"/>
			<point x="258.84891" y="296.28229"/>
			<point x="291.62411" y="300.15869" type="curve"/>
			<point x="291.56799" y="299.6362"/>
			<point x="291.51059" y="299.1138"/>
			<point x="291.4545" y="298.59131" type="curve"/>
			<point x="281.78281" y="208.9532"/>
			<point x="273.56451" y="118.9081"/>
			<point x="257.11789" y="30.1941" type="curve"/>
			<point x="249.3042" y="-11.9562"/>
			<point x="240.34241" y="-54.389"/>
			<point x="227.4725" y="-95.3278" type="curve"/>
			<point x="210.4156" y="-149.58681"/>
			<point x="188.3636" y="-170.2496"/>
			<point x="138.0029" y="-192.0703" type="curve"/>
			<point x="123.2806" y="-198.44971"/>
			<point x="126.4276" y="-219.7668"/>
		</contour>
	</outline>
</glyph>
<glyph name="g" format="2">
	<unicode hex="0067"/>
	<advance width="600"/>
	<outline>
		<contour>
			<point x="335.64761" y="92.981" type="curve"/>
			<point x="271.35309" y="34.776"/>
			<point x="202.43649" y="-37.2235"/>
			<point x="165.8746" y="-116.9128" type="curve"/>
			<point x="145.0128" y="-162.3822"/>
			<point x="148.8501" y="-245.5511"/>
			<point x="218.41251" y="-237.5983" type="curve"/>
			<point x="285.85999" y="-229.8877"/>
			<point x="319.4751" y="-129.5087"/>
			<point x="340.0647" y="-77.0813" type="curve"/>
			<point x="359.4617" y="-27.6898"/>
			<point x="371.6467" y="22.7863"/>
			<point x="378.87759" y="74.1254" type="curve"/>
			<point x="384.17239" y="74.2389"/>
			<point x="389.4794" y="76.7712"/>
			<point x="393.12561" y="82.6599" type="curve"/>
			<point x="439.99451" y="158.35451"/>
			<point x="470.7428" y="284.45129"/>
			<point x="418.46439" y="364.81631" type="curve"/>
			<point x="367.0892" y="443.79269"/>
			<point x="266.97809" y="399.60019"/>
			<point x="216.6559" y="344.72781" type="curve"/>
			<point x="184.4745" y="309.63681"/>
			<point x="160.3705" y="268.00171"/>
			<point x="145.5139" y="222.7905" type="curve"/>
			<point x="134.7534" y="190.0452"/>
			<point x="118.1531" y="135.0079"/>
			<point x="139.86571" y="103.2458" type="curve"/>
			<point x="159.76199" y="74.1394"/>
			<point x="196.6736" y="78.9966"/>
			<point x="224.6265" y="91.8274" type="curve"/>
			<point x="264.892" y="110.3094"/>
			<point x="303.24039" y="137.36079"/>
			<point x="340.8588" y="163.089" type="curve"/>
			<point x="340.53961" y="139.67039"/>
			<point x="338.75241" y="116.2518"/>
		</contour>
		<contour>
			<point x="258.6731" y="-135.83859" type="curve"/>
			<point x="253.13541" y="-145.6628"/>
			<point x="242.45419" y="-169.96091"/>
			<point x="232.9529" y="-174.491" type="curve"/>
			<point x="222.6447" y="-172.6227"/>
			<point x="212.33701" y="-170.75439"/>
			<point x="202.0294" y="-168.88609" type="curve"/>
			<point x="203.2867" y="-162.4194"/>
			<point x="204.5441" y="-155.9534"/>
			<point x="205.802" y="-149.48669" type="curve"/>
			<point x="210.4077" y="-124.2566"/>
			<point x="234.64661" y="-95.0385"/>
			<point x="248.866" y="-74.7284" type="curve"/>
			<point x="270.1727" y="-44.2957"/>
			<point x="293.85251" y="-15.9241"/>
			<point x="319.03561" y="11.1115" type="curve"/>
			<point x="305.01279" y="-40.2271"/>
			<point x="284.60629" y="-89.8309"/>
		</contour>
		<contour>
			<point x="195.33569" y="136.91161" type="curve"/>
			<point x="153.7762" y="150.4938"/>
			<point x="231.9012" y="280.7135"/>
			<point x="249.1779" y="300.86911" type="curve"/>
			<point x="294.4769" y="353.71771"/>
			<point x="371.94211" y="388.28741"/>
			<point x="394.69601" y="296.46909" type="curve"/>
			<point x="404.2468" y="257.92719"/>
			<point x="397.59399" y="222.0154"/>
			<point x="387.25711" y="186.5546" type="curve"/>
			<point x="387.3627" y="193.3649"/>
			<point x="387.55371" y="200.1581"/>
			<point x="387.5372" y="206.9946" type="curve"/>
			<point x="387.4939" y="225.0452"/>
			<point x="367.2601" y="236.8347"/>
			<point x="351.59729" y="227.61839" type="curve"/>
			<point x="325.70499" y="212.38341"/>
			<point x="299.92609" y="196.955"/>
			<point x="274.1156" y="181.58141" type="curve"/>
			<point x="261.63089" y="174.14549"/>
			<point x="208.93311" y="132.4677"/>
		</contour>
	</outline>
</glyph>
<glyph name="h" format="2">
	<unicode hex="0068"/>
	<advance width="600"/>
	<outline>
		<contour>
			<point x="476.4679" y="184.34331" type="curve"/>
			<point x="465.5383" y="150.7019"/>
			<point x="444.46719" y="100.8344"/>
			<point x="413.689" y="79.6533" type="curve"/>
			<point x="349.95911" y="35.7959"/>
			<point x="346.7706" y="141.50571"/>
			<point x="343.3862" y="176.3885" type="curve"/>
			<point x="339.85471" y="212.7863"/>
			<point x="327.90219" y="249.2554"/>
			<point x="283.03281" y="237.453" type="curve"/>
			<point x="247.60249" y="228.1335"/>
			<point x="211.6528" y="199.8389"/>
			<point x="182.4231" y="170.46629" type="curve"/>
			<point x="214.6552" y="273.91049"/>
			<point x="248.1006" y="376.9769"/>
			<point x="282.9834" y="479.55991" type="curve"/>
			<point x="289.74731" y="499.45129"/>
			<point x="259.15341" y="507.22601"/>
			<point x="251.8701" y="488.13779" type="curve"/>
			<point x="195.5786" y="340.60849"/>
			<point x="143.0005" y="191.79201"/>
			<point x="93.3954" y="41.911" type="curve"/>
			<point x="84.4531" y="21.1743"/>
			<point x="77.2809" y="-0.39429"/>
			<point x="72.0074" y="-22.7155" type="curve"/>
			<point x="64.6564" y="-53.8293"/>
			<point x="110.9766" y="-66.7505"/>
			<point x="119.964" y="-35.9363" type="curve"/>
			<point x="139.7565" y="37.9431"/>
			<point x="178.8092" y="104.0295"/>
			<point x="238.88" y="152.32851" type="curve"/>
			<point x="250.5975" y="161.7493"/>
			<point x="268.60349" y="178.5889"/>
			<point x="283.2001" y="182.17039" type="curve"/>
			<point x="296.95621" y="193.8403"/>
			<point x="300.4108" y="191.9128"/>
			<point x="293.5632" y="176.3885" type="curve"/>
			<point x="293.6163" y="170.7605"/>
			<point x="293.66879" y="165.1324"/>
			<point x="293.72189" y="159.5038" type="curve"/>
			<point x="294.1138" y="127.0819"/>
			<point x="301.92261" y="94.1052"/>
			<point x="314.77051" y="64.436" type="curve"/>
			<point x="378.12491" y="-81.8671"/>
			<point x="506.1615" y="85.6604"/>
			<point x="528.67432" y="169.95061" type="curve"/>
			<point x="537.71613" y="203.80251"/>
			<point x="487.1893" y="217.34621"/>
		</contour>
	</outline>
</glyph>
<glyph name="i" format="2">
	<unicode hex="0069"/>
	<advance width="600"/>
	<outline>
		<contour>
			<point x="275.96011" y="17.1619" type="curve"/>
			<point x="277.2247" y="23.316"/>
			<point x="278.31671" y="29.5007"/>
			<point x="279.23651" y="35.7159" type="curve"/>
			<point x="279.98779" y="40.3461"/>
			<point x="279.31149" y="45.3046"/>
			<point x="277.5983" y="49.9469" type="curve"/>
			<point x="278.57849" y="83.6731"/>
			<point x="281.2048" y="117.0392"/>
			<point x="287.901" y="150.3802" type="curve"/>
			<point x="295.53961" y="188.4131"/>
			<point x="310.87341" y="224.47569"/>
			<point x="317.66422" y="262.49759" type="curve"/>
			<point x="320.33389" y="277.44321"/>
			<point x="300.81729" y="294.07529"/>
			<point x="288.8721" y="279.25839" type="curve"/>
			<point x="235.047" y="212.49271"/>
			<point x="216.6235" y="109.3298"/>
			<point x="212.07339" y="25.8081" type="curve"/>
			<point x="210.1044" y="-10.3369"/>
			<point x="269.035" y="-19.0961"/>
		</contour>
		<contour>
			<point x="299.0863" y="421.04611" type="curve"/>
			<point x="303.7457" y="416.58691"/>
			<point x="308.8287" y="413.96552"/>
			<point x="314.91641" y="411.8176" type="curve"/>
			<point x="317.08801" y="411.05161"/>
			<point x="319.259" y="410.28561"/>
			<point x="321.43069" y="409.51971" type="curve"/>
			<point x="338.97711" y="403.33011"/>
			<point x="358.5657" y="422.91809"/>
			<point x="352.3761" y="440.46509" type="curve"/>
			<point x="351.67969" y="442.439"/>
			<point x="350.98331" y="444.41281"/>
			<point x="350.2869" y="446.3873" type="curve"/>
			<point x="349.57819" y="448.39539"/>
			<point x="348.79819" y="450.30331"/>
			<point x="347.96329" y="452.2821" type="curve"/>
			<point x="346.26221" y="456.3129"/>
			<point x="343.88062" y="459.6326"/>
			<point x="340.84961" y="462.80939" type="curve"/>
			<point x="337.53781" y="466.2811"/>
			<point x="334.0546" y="469.6051"/>
			<point x="330.66159" y="472.99741" type="curve"/>
			<point x="319.72351" y="483.93549"/>
			<point x="299.6875" y="484.7504"/>
			<point x="288.89828" y="472.99741" type="curve"/>
			<point x="278.0762" y="461.2085"/>
			<point x="277.22531" y="442.90649"/>
			<point x="288.89828" y="431.2341" type="curve"/>
			<point x="292.29129" y="427.84061"/>
			<point x="295.6189" y="424.3634"/>
		</contour>
	</outline>
</glyph>
<glyph name="j" format="2">
	<unicode hex="006A"/>
	<advance width="600"/>
	<outline>
		<contour>
			<point x="227.0703" y="-106.9366" type="curve"/>
			<point x="272.49881" y="-57.265"/>
			<point x="297.6727" y="31.7548"/>
			<point x="317.26749" y="94.906" type="curve"/>
			<point x="342.21249" y="175.3046"/>
			<point x="356.42029" y="258.27209"/>
			<point x="362.27661" y="342.1716" type="curve"/>
			<point x="363.8226" y="364.31339"/>
			<point x="334.0076" y="374.70401"/>
			<point x="319.42691" y="359.92068" type="curve"/>
			<point x="271.25311" y="311.07791"/>
			<point x="223.27209" y="259.87979"/>
			<point x="185.7141" y="202.2235" type="curve"/>
			<point x="172.85339" y="182.48109"/>
			<point x="202.2583" y="159.8102"/>
			<point x="218.35271" y="177.04041" type="curve"/>
			<point x="247.1265" y="207.8448"/>
			<point x="274.76749" y="239.4525"/>
			<point x="303.18051" y="270.4169" type="curve"/>
			<point x="289.63129" y="183.6218"/>
			<point x="265.44009" y="98.4998"/>
			<point x="229.50439" y="18.2178" type="curve"/>
			<point x="220.3918" y="-2.1405"/>
			<point x="211.7267" y="-26.391"/>
			<point x="198.6133" y="-44.5197" type="curve"/>
			<point x="175.6927" y="-76.2061"/>
			<point x="149.5764" y="-79.1357"/>
			<point x="115.7037" y="-64.3488" type="curve"/>
			<point x="65.9991" y="-42.6508"/>
			<point x="36.9623" y="-0.33935"/>
			<point x="19.1583" y="49.3622" type="curve"/>
			<point x="9.96399" y="75.0287"/>
			<point x="-33.0048" y="73.2855"/>
			<point x="-31.33" y="42.5293" type="curve"/>
			<point x="-27.9529" y="-19.4904"/>
			<point x="9.25537" y="-76.1523"/>
			<point x="62.5116" y="-108.197" type="curve"/>
			<point x="110.7281" y="-137.2101"/>
			<point x="184.6991" y="-153.2648"/>
		</contour>
		<contour>
			<point x="372.36151" y="545.82892" type="curve"/>
			<point x="367.92542" y="561.51001"/>
			<point x="350.11469" y="572.81012"/>
			<point x="334.01669" y="567.60071" type="curve"/>
			<point x="318.03531" y="562.42859"/>
			<point x="307.48959" y="546.06451"/>
			<point x="312.2449" y="529.25537" type="curve"/>
			<point x="316.33969" y="514.78027"/>
			<point x="321.13101" y="501.04739"/>
			<point x="326.73221" y="487.08859" type="curve"/>
			<point x="332.30469" y="473.20071"/>
			<point x="346.13889" y="461.8866"/>
			<point x="362.04959" y="467.03549" type="curve"/>
			<point x="378.05539" y="472.21561"/>
			<point x="384.82669" y="486.44901"/>
			<point x="382.10269" y="502.35349" type="curve"/>
			<point x="379.56479" y="517.1698"/>
			<point x="376.45389" y="531.36469"/>
		</contour>
	</outline>
</glyph>
<glyph name="k" format="2">
	<unicode hex="006B"/>
	<advance width="600"/>
	<outline>
		<contour>
			<point x="331.07669" y="534.62219" type="curve"/>
			<point x="330.7001" y="550.1178"/>
			<point x="310.17401" y="555.77582"/>
			<point x="302.03311" y="542.4884" type="curve"/>
			<point x="281.06631" y="508.2684"/>
			<point x="274.2218" y="465.5188"/>
			<point x="263.33011" y="427.06119" type="curve"/>
			<point x="251.7627" y="386.2164"/>
			<point x="240.1947" y="345.37109"/>
			<point x="228.62669" y="304.5264" type="curve"/>
			<point x="221.6003" y="279.71619"/>
			<point x="214.7675" y="254.8541"/>
			<point x="207.785" y="230.033" type="curve"/>
			<point x="180.9882" y="169.444"/>
			<point x="166.64371" y="100.7129"/>
			<point x="157.36079" y="49.8071" type="curve"/>
			<point x="151.26401" y="16.3733"/>
			<point x="200.2045" y="1.65039"/>
			<point x="209.0771" y="35.5493" type="curve"/>
			<point x="222.5067" y="86.8549"/>
			<point x="235.6152" y="138.2397"/>
			<point x="248.82629" y="189.5984" type="curve"/>
			<point x="252.11549" y="197.6953"/>
			<point x="255.6891" y="205.6653"/>
			<point x="259.58499" y="213.4863" type="curve"/>
			<point x="303.9014" y="121.6412"/>
			<point x="402.4274" y="85.1453"/>
			<point x="497.4646" y="66.77" type="curve"/>
			<point x="529.89258" y="60.4999"/>
			<point x="543.57123" y="110.5127"/>
			<point x="511.1304" y="116.3397" type="curve"/>
			<point x="434.40921" y="130.1208"/>
			<point x="355.97659" y="152.65691"/>
			<point x="312.94009" y="218.35271" type="curve"/>
			<point x="357.75699" y="231.65829"/>
			<point x="410.6268" y="253.52969"/>
			<point x="423.49429" y="297.6813" type="curve"/>
			<point x="437.0892" y="344.3298"/>
			<point x="393.46439" y="373.07739"/>
			<point x="351.7883" y="365.827" type="curve"/>
			<point x="327.18201" y="361.54599"/>
			<point x="305.7153" y="351.68271"/>
			<point x="286.9147" y="337.81619" type="curve"/>
			<point x="293.47781" y="363.58759"/>
			<point x="300.04031" y="389.35971"/>
			<point x="306.60281" y="415.1312" type="curve"/>
			<point x="316.48071" y="453.9209"/>
			<point x="332.0538" y="494.44519"/>
		</contour>
		<contour>
			<point x="367.54031" y="316.7999" type="curve"/>
			<point x="386.72849" y="307.32239"/>
			<point x="328.77081" y="280.84659"/>
			<point x="294.15649" y="266.66019" type="curve"/>
			<point x="314.95911" y="291.8555"/>
			<point x="348.64871" y="326.1304"/>
		</contour>
	</outline>
</glyph>
<glyph name="l" format="2">
	<unicode hex="006C"/>
	<advance width="600"/>
	<outline>
		<contour>
			<point x="386.65341" y="274.85901" type="curve"/>
			<point x="429.46841" y="354.83029"/>
			<point x="462.82959" y="439.30789"/>
			<point x="487.62271" y="526.5155" type="curve"/>
			<point x="492.4213" y="543.39288"/>
			<point x="479.33469" y="555.78857"/>
			<point x="463.9093" y="557.64471" type="curve"/>
			<point x="423.8324" y="562.46637"/>
			<point x="408.25131" y="520.54077"/>
			<point x="394.67291" y="490.27649" type="curve"/>
			<point x="371.63019" y="438.91721"/>
			<point x="351.4563" y="386.15781"/>
			<point x="334.05759" y="332.62631" type="curve"/>
			<point x="322.1362" y="295.94669"/>
			<point x="308.08289" y="254.02589"/>
			<point x="297.13559" y="210.68851" type="curve"/>
			<point x="266.97879" y="164.9695"/>
			<point x="234.74001" y="120.7574"/>
			<point x="207.5824" y="73.0322" type="curve"/>
			<point x="199.5502" y="58.9166"/>
			<point x="217.48779" y="46.8207"/>
			<point x="229.05521" y="56.4642" type="curve"/>
			<point x="247.2662" y="71.6461"/>
			<point x="264.0686" y="88.9508"/>
			<point x="279.76071" y="107.5665" type="curve"/>
			<point x="277.65991" y="73.7415"/>
			<point x="279.98599" y="40.8484"/>
			<point x="289.41959" y="10.7312" type="curve"/>
			<point x="299.9487" y="-22.8833"/>
			<point x="347.94681" y="-8.85681"/>
			<point x="341.62601" y="25.1239" type="curve"/>
			<point x="329.84189" y="88.4778"/>
			<point x="339.29749" y="153.0463"/>
			<point x="353.9465" y="215.8362" type="curve"/>
			<point x="365.45169" y="235.6427"/>
			<point x="376.29639" y="255.51331"/>
		</contour>
	</outline>
</glyph>
<glyph name="m" format="2">
	<unicode hex="006D"/>
	<advance width="600"/>
	<outline>
		<contour>
			<point x="229.48241" y="298.70969" type="curve"/>
			<point x="242.07401" y="308.85071"/>
			<point x="256.4563" y="317.4762"/>
			<point x="268.58829" y="328.04749" type="curve"/>
			<point x="271.30191" y="329.88339"/>
			<point x="274.01611" y="331.71939"/>
			<point x="276.72971" y="333.5553" type="curve"/>
			<point x="278.83359" y="316.0889"/>
			<point x="253.30811" y="266.13889"/>
			<point x="248.30321" y="253.3282" type="curve"/>
			<point x="234.29021" y="217.4561"/>
			<point x="217.9272" y="182.7252"/>
			<point x="199.7339" y="148.93311" type="curve"/>
			<point x="187.4976" y="128.83"/>
			<point x="175.769" y="108.4625"/>
			<point x="164.49159" y="88.0695" type="curve"/>
			<point x="147.8436" y="57.9639"/>
			<point x="192.7838" y="31.6821"/>
			<point x="210.592" y="61.1224" type="curve"/>
			<point x="212.1918" y="63.7677"/>
			<point x="214.87241" y="68.4326"/>
			<point x="218.2263" y="74.447" type="curve"/>
			<point x="275.34241" y="173.8763"/>
			<point x="341.4209" y="271.23541"/>
			<point x="441.88721" y="328.2666" type="curve"/>
			<point x="441.0834" y="295.24109"/>
			<point x="423.7598" y="254.8792"/>
			<point x="422.30469" y="225.32899" type="curve"/>
			<point x="420.81729" y="195.1129"/>
			<point x="423.4595" y="162.7618"/>
			<point x="433.9722" y="134.26511" type="curve"/>
			<point x="451.16089" y="87.674"/>
			<point x="496.69489" y="51.8903"/>
			<point x="546.98181" y="72.0599" type="curve"/>
			<point x="578.18298" y="84.5746"/>
			<point x="566.99579" y="130.35339"/>
			<point x="532.87958" y="123.2123" type="curve"/>
			<point x="492.91501" y="114.8462"/>
			<point x="480.87949" y="162.9462"/>
			<point x="478.19461" y="191.5894" type="curve"/>
			<point x="475.51208" y="220.2124"/>
			<point x="479.26999" y="248.1812"/>
			<point x="486.05591" y="275.97049" type="curve"/>
			<point x="495.6091" y="315.09399"/>
			<point x="501.56619" y="345.17941"/>
			<point x="485.0354" y="382.92542" type="curve"/>
			<point x="478.63159" y="397.54819"/>
			<point x="459.60941" y="398.24161"/>
			<point x="447.3779" y="392.79971" type="curve"/>
			<point x="397.41641" y="370.57129"/>
			<point x="354.59961" y="339.2572"/>
			<point x="316.98669" y="302.30411" type="curve"/>
			<point x="331.16211" y="358.81839"/>
			<point x="326.58939" y="400.18311"/>
			<point x="277.17291" y="390.3717" type="curve"/>
			<point x="248.9948" y="384.77719"/>
			<point x="221.1481" y="357.50549"/>
			<point x="199.2462" y="340.09161" type="curve"/>
			<point x="181.2146" y="325.755"/>
			<point x="163.9075" y="310.55109"/>
			<point x="147.25591" y="294.65451" type="curve"/>
			<point x="153.9624" y="328.67609"/>
			<point x="154.2468" y="363.95081"/>
			<point x="144.3268" y="401.06451" type="curve"/>
			<point x="142.3499" y="408.46011"/>
			<point x="134.1333" y="413.186"/>
			<point x="126.7371" y="411.05099" type="curve"/>
			<point x="114.5313" y="407.52811"/>
			<point x="113.7445" y="407.39261"/>
			<point x="105.6958" y="397.4689" type="curve"/>
			<point x="100.5255" y="391.09439"/>
			<point x="105.0909" y="378.31049"/>
			<point x="114.7412" y="381.9299" type="curve"/>
			<point x="120.9082" y="384.2438"/>
			<point x="112.5684" y="305.16971"/>
			<point x="110.152" y="296.69312" type="curve"/>
			<point x="102.0905" y="268.4119"/>
			<point x="89.3707" y="241.92751"/>
			<point x="74.9408" y="216.38789" type="curve"/>
			<point x="73.3337" y="213.54311"/>
			<point x="71.5704" y="210.7959"/>
			<point x="69.9286" y="207.9724" type="curve"/>
			<point x="38.8556" y="167.0508"/>
			<point x="11.9147" y="122.9718"/>
			<point x="-9.98169" y="76.5503" type="curve"/>
			<point x="-23.7213" y="47.4213"/>
			<point x="19.3567" y="21.7529"/>
			<point x="33.5876" y="51.0834" type="curve"/>
			<point x="81.7883" y="146.3074"/>
			<point x="146.0071" y="231.4783"/>
		</contour>
	</outline>
</glyph>
<glyph name="n" format="2">
	<unicode hex="006E"/>
	<advance width="600"/>
	<outline>
		<contour>
			<point x="504.46289" y="144.4922" type="curve"/>
			<point x="483.39111" y="129.6429"/>
			<point x="456.01071" y="105.8447"/>
			<point x="428.905" y="106.4581" type="curve"/>
			<point x="389.02161" y="107.3602"/>
			<point x="392.276" y="154.259"/>
			<point x="395.1196" y="182.91991" type="curve"/>
			<point x="401.3129" y="245.3479"/>
			<point x="414.53491" y="307.82291"/>
			<point x="424.42319" y="369.776" type="curve"/>
			<point x="427.18869" y="387.10269"/>
			<point x="420.0647" y="400.73181"/>
			<point x="403.28189" y="407.01169" type="curve"/>
			<point x="364.3689" y="421.57291"/>
			<point x="331.64731" y="398.0145"/>
			<point x="300.39551" y="376.3165" type="curve"/>
			<point x="258.65781" y="347.3389"/>
			<point x="218.9722" y="315.1788"/>
			<point x="182.17349" y="280.14401" type="curve"/>
			<point x="176.4624" y="274.70639"/>
			<point x="170.4498" y="268.99841"/>
			<point x="164.2511" y="263.0444" type="curve"/>
			<point x="173.2672" y="292.0062"/>
			<point x="182.1393" y="321.02289"/>
			<point x="190.8423" y="350.11411" type="curve"/>
			<point x="196.8463" y="370.18491"/>
			<point x="166.4648" y="378.13541"/>
			<point x="159.729" y="358.69141" type="curve"/>
			<point x="140.0647" y="301.92871"/>
			<point x="118.4302" y="245.8801"/>
			<point x="95.4321" y="190.3894" type="curve"/>
			<point x="58.7775" y="145.6665"/>
			<point x="29.9713" y="94.9664"/>
			<point x="33.5626" y="43.219" type="curve"/>
			<point x="35.7581" y="11.5906"/>
			<point x="76.9531" y="6.41296"/>
			<point x="87.8107" y="35.8771" type="curve"/>
			<point x="96.0889" y="58.3423"/>
			<point x="104.0411" y="80.9009"/>
			<point x="111.8896" y="103.49" type="curve"/>
			<point x="135.7617" y="146.81821"/>
			<point x="172.33279" y="183.97279"/>
			<point x="207.0862" y="219.1064" type="curve"/>
			<point x="231.02721" y="243.30991"/>
			<point x="256.3306" y="266.24081"/>
			<point x="282.7905" y="287.6636" type="curve"/>
			<point x="297.02271" y="299.1864"/>
			<point x="331.29211" y="331.23721"/>
			<point x="359.36221" y="344.2114" type="curve"/>
			<point x="351.66501" y="296.76151"/>
			<point x="343.79391" y="249.30969"/>
			<point x="337.1149" y="201.7303" type="curve"/>
			<point x="332.1069" y="166.0535"/>
			<point x="328.50891" y="126.4044"/>
			<point x="345.3754" y="93.0072" type="curve"/>
			<point x="389.17599" y="6.27563"/>
			<point x="487.41211" y="48.5394"/>
			<point x="535.61102" y="104.1229" type="curve"/>
			<point x="553.46307" y="124.7113"/>
			<point x="529.84381" y="162.3773"/>
		</contour>
	</outline>
</glyph>
<glyph name="o" format="2">
	<unicode hex="006F"/>
	<advance width="600"/>
	<outline>
		<contour>
			<point x="185.79961" y="101.4313" type="curve"/>
			<point x="226.3287" y="71.6266"/>
			<point x="281.76569" y="63.891"/>
			<point x="330.4053" y="73.1757" type="curve"/>
			<point x="433.08041" y="92.7753"/>
			<point x="503.84161" y="187.9962"/>
			<point x="508.96179" y="290.03851" type="curve"/>
			<point x="514.552" y="401.4429"/>
			<point x="406.5741" y="464.8273"/>
			<point x="303.2269" y="445.76971" type="curve"/>
			<point x="302.8186" y="445.69461"/>
			<point x="302.48471" y="445.5463"/>
			<point x="302.09171" y="445.4559" type="curve"/>
			<point x="301.1102" y="452.48349"/>
			<point x="295.91669" y="458.93979"/>
			<point x="287.30649" y="458.75311" type="curve"/>
			<point x="179.4568" y="456.41541"/>
			<point x="145.2045" y="305.2283"/>
			<point x="142.5244" y="219.8047" type="curve"/>
			<point x="141.0699" y="173.4344"/>
			<point x="146.25121" y="130.51511"/>
		</contour>
		<contour>
			<point x="195.7623" y="228.2404" type="curve"/>
			<point x="198.00349" y="286.54599"/>
			<point x="219.58009" y="404.87061"/>
			<point x="285.65189" y="426.99521" type="curve"/>
			<point x="284.44699" y="415.3241"/>
			<point x="291.16699" y="401.9263"/>
			<point x="303.2269" y="397.7814" type="curve"/>
			<point x="369.72781" y="374.92609"/>
			<point x="457.3248" y="387.8613"/>
			<point x="452.58609" y="290.03851" type="curve"/>
			<point x="449.24741" y="221.1169"/>
			<point x="405.0806" y="154.1235"/>
			<point x="338.58279" y="132.0728" type="curve"/>
			<point x="304.96091" y="120.9235"/>
			<point x="262.27539" y="120.1166"/>
			<point x="230.34731" y="137.5269" type="curve"/>
			<point x="194.0607" y="157.3138"/>
			<point x="194.37131" y="192.04469"/>
		</contour>
	</outline>
</glyph>
<glyph name="p" format="2">
	<unicode hex="0070"/>
	<advance width="600"/>
	<outline>
		<contour>
			<point x="192.1588" y="-170.62621" type="curve"/>
			<point x="198.0475" y="-73.5266"/>
			<point x="209.8877" y="23.5284"/>
			<point x="224.4873" y="119.8248" type="curve"/>
			<point x="271.52469" y="114.4934"/>
			<point x="337.16309" y="142.6221"/>
			<point x="371.29581" y="158.66879" type="curve"/>
			<point x="429.01251" y="185.80321"/>
			<point x="487.86319" y="230.0305"/>
			<point x="511.96231" y="291.2085" type="curve"/>
			<point x="567.55249" y="432.3309"/>
			<point x="377.64221" y="493.90869"/>
			<point x="273.98441" y="512.42981" type="curve"/>
			<point x="250.7831" y="516.57532"/>
			<point x="240.47" y="481.92441"/>
			<point x="264.09851" y="476.5704" type="curve"/>
			<point x="334.78641" y="460.55301"/>
			<point x="519.75458" y="405.5878"/>
			<point x="457.97849" y="301.02359" type="curve"/>
			<point x="435.56641" y="263.0878"/>
			<point x="394.4769" y="237.59641"/>
			<point x="355.32959" y="219.6106" type="curve"/>
			<point x="332.00201" y="208.89281"/>
			<point x="307.31201" y="201.01379"/>
			<point x="282.16309" y="195.9039" type="curve"/>
			<point x="268.37399" y="192.951"/>
			<point x="254.4464" y="191.1169"/>
			<point x="240.38091" y="190.40041" type="curve"/>
			<point x="238.6395" y="190.40891"/>
			<point x="237.18201" y="190.4077"/>
			<point x="235.7007" y="190.4077" type="curve"/>
			<point x="243.62849" y="238.7408"/>
			<point x="251.9427" y="287.02328"/>
			<point x="261.203" y="335.116" type="curve"/>
			<point x="265.76901" y="358.8269"/>
			<point x="287.57571" y="407.6514"/>
			<point x="272.077" y="429.71069" type="curve"/>
			<point x="266.76569" y="437.2699"/>
			<point x="258.2782" y="438.02551"/>
			<point x="251.2274" y="432.39749" type="curve"/>
			<point x="250.3149" y="431.66931"/>
			<point x="249.4025" y="430.94119"/>
			<point x="248.4906" y="430.21301" type="curve"/>
			<point x="242.62331" y="425.52979"/>
			<point x="244.46291" y="416.8042"/>
			<point x="248.45151" y="411.84451" type="curve"/>
			<point x="245.5701" y="400.2887"/>
			<point x="235.2057" y="370.0275"/>
			<point x="233.2507" y="362.68011" type="curve"/>
			<point x="226.69009" y="338.01639"/>
			<point x="220.351" y="313.29471"/>
			<point x="214.23399" y="288.51749" type="curve"/>
			<point x="205.9088" y="254.7955"/>
			<point x="198.3472" y="220.9119"/>
			<point x="191.0919" y="186.95799" type="curve"/>
			<point x="189.10159" y="185.04581"/>
			<point x="187.27229" y="183.0121"/>
			<point x="185.8624" y="180.7666" type="curve"/>
			<point x="185.00369" y="179.3988"/>
			<point x="184.1449" y="178.03101"/>
			<point x="183.2861" y="176.66319" type="curve"/>
			<point x="176.95799" y="166.58569"/>
			<point x="177.3578" y="154.65939"/>
			<point x="182.1796" y="144.6796" type="curve"/>
			<point x="181.80659" y="142.83141"/>
			<point x="181.3837" y="140.9949"/>
			<point x="181.0132" y="139.1461" type="curve"/>
			<point x="162.5403" y="46.9482"/>
			<point x="148.70061" y="-45.7678"/>
			<point x="134.9286" y="-138.69569" type="curve"/>
			<point x="129.96339" y="-144.0869"/>
			<point x="127.2589" y="-152.00681"/>
			<point x="128.6987" y="-161.33479" type="curve"/>
			<point x="129.59959" y="-167.1729"/>
			<point x="130.5005" y="-173.01089"/>
			<point x="131.40199" y="-178.84891" type="curve"/>
			<point x="136.9812" y="-214.9933"/>
			<point x="190.1666" y="-203.4735"/>
		</contour>
	</outline>
</glyph>
<glyph name="q" format="2">
	<unicode hex="0071"/>
	<advance width="600"/>
	<outline>
		<contour>
			<point x="477.93521" y="160.31619" type="curve"/>
			<point x="427.86929" y="167.6727"/>
			<point x="370.9473" y="172.46581"/>
			<point x="324.2926" y="151.2207" type="curve"/>
			<point x="335.1947" y="179.79919"/>
			<point x="346.8317" y="208.0963"/>
			<point x="359.35239" y="235.9906" type="curve"/>
			<point x="362.92542" y="221.43919"/>
			<point x="386.3739" y="218.33369"/>
			<point x="392.73251" y="235.75011" type="curve"/>
			<point x="416.19629" y="300.022"/>
			<point x="468.9758" y="434.80289"/>
			<point x="387.0618" y="480.61401" type="curve"/>
			<point x="313.86169" y="521.55267"/>
			<point x="212.65379" y="456.875"/>
			<point x="163.7128" y="404.63751" type="curve"/>
			<point x="121.4697" y="359.54831"/>
			<point x="50.2271" y="252.03799"/>
			<point x="131.0614" y="209.1071" type="curve"/>
			<point x="184.76379" y="180.58591"/>
			<point x="244.7809" y="195.62131"/>
			<point x="297.14291" y="225.3967" type="curve"/>
			<point x="272.7948" y="168.9075"/>
			<point x="250.22639" y="111.7505"/>
			<point x="231.05161" y="53.0072" type="curve"/>
			<point x="216.1078" y="7.22534"/>
			<point x="202.5238" y="-39.1663"/>
			<point x="191.3385" y="-86.0187" type="curve"/>
			<point x="183.76649" y="-117.735"/>
			<point x="178.1787" y="-145.1819"/>
			<point x="201.94031" y="-170.54201" type="curve"/>
			<point x="217.06731" y="-186.6864"/>
			<point x="244.8322" y="-178.26781"/>
			<point x="250.53529" y="-157.7124" type="curve"/>
			<point x="269.60211" y="-88.9935"/>
			<point x="281.7767" y="-12.8137"/>
			<point x="308.8013" y="53.1494" type="curve"/>
			<point x="335.73489" y="118.8916"/>
			<point x="410.6702" y="114.9695"/>
			<point x="471.46552" y="112.5134" type="curve"/>
			<point x="498.28549" y="111.4301"/>
			<point x="505.4187" y="156.27811"/>
		</contour>
		<contour>
			<point x="181.91589" y="257.08249" type="curve"/>
			<point x="161.0779" y="259.6796"/>
			<point x="150.70309" y="257.8186"/>
			<point x="156.8372" y="285.5267" type="curve"/>
			<point x="159.2401" y="296.3812"/>
			<point x="166.1487" y="307.84729"/>
			<point x="171.43919" y="317.62939" type="curve"/>
			<point x="183.83971" y="340.55789"/>
			<point x="200.4352" y="361.45749"/>
			<point x="219.5612" y="379.14981" type="curve"/>
			<point x="247.8479" y="405.31491"/>
			<point x="312.71609" y="451.37329"/>
			<point x="354.69241" y="435.578" type="curve"/>
			<point x="383.73169" y="424.6503"/>
			<point x="385.58041" y="380.5542"/>
			<point x="379.61301" y="336.42151" type="curve"/>
			<point x="370.2081" y="342.13501"/>
			<point x="357.58301" y="342.42801"/>
			<point x="347.10391" y="332.71359" type="curve"/>
			<point x="303.23181" y="292.0441"/>
			<point x="245.4218" y="249.16811"/>
		</contour>
	</outline>
</glyph>
<glyph name="r" format="2">
	<unicode hex="0072"/>
	<advance width="600"/>
	<outline>
		<contour>
			<point x="219.3073" y="462.17041" type="curve"/>
			<point x="188.15311" y="390.30759"/>
			<point x="181.2469" y="304.84009"/>
			<point x="169.3158" y="227.8864" type="curve"/>
			<point x="156.9019" y="147.8186"/>
			<point x="146.21091" y="67.3938"/>
			<point x="138.2428" y="-13.2422" type="curve"/>
			<point x="134.411" y="-52.0197"/>
			<point x="193.7189" y="-50.9149"/>
			<point x="198.3325" y="-13.2422" type="curve"/>
			<point x="218.1702" y="148.73109"/>
			<point x="279.7327" y="301.88599"/>
			<point x="425.1398" y="388.05109" type="curve"/>
			<point x="455.6879" y="406.15302"/>
			<point x="428.84769" y="450.80991"/>
			<point x="397.53781" y="435.27219" type="curve"/>
			<point x="326.39279" y="399.96521"/>
			<point x="273.19821" y="345.7037"/>
			<point x="233.70911" y="281.66321" type="curve"/>
			<point x="244.00211" y="338.3093"/>
			<point x="256.37329" y="396.33359"/>
			<point x="254.9756" y="452.5098" type="curve"/>
			<point x="254.5428" y="469.88651"/>
			<point x="227.3187" y="480.64999"/>
		</contour>
	</outline>
</glyph>
<glyph name="s" format="2">
	<unicode hex="0073"/>
	<advance width="600"/>
	<outline>
		<contour>
			<point x="449.4617" y="353.74689" type="curve"/>
			<point x="510.0946" y="418.2507"/>
			<point x="462.43411" y="500.79529"/>
			<point x="387.9895" y="524.97247" type="curve"/>
			<point x="304.04419" y="552.23511"/>
			<point x="188.94839" y="516.56311"/>
			<point x="172.48109" y="420.05069" type="curve"/>
			<point x="157.56039" y="332.60379"/>
			<point x="250.30701" y="251.08459"/>
			<point x="318.0878" y="213.1104" type="curve"/>
			<point x="343.44479" y="198.90379"/>
			<point x="373.21039" y="187.7014"/>
			<point x="394.20041" y="166.89211" type="curve"/>
			<point x="412.48349" y="148.76711"/>
			<point x="428.6774" y="116.864"/>
			<point x="401.366" y="94.2816" type="curve"/>
			<point x="391.10959" y="85.8014"/>
			<point x="368.9758" y="87.1881"/>
			<point x="357.21371" y="87.1674" type="curve"/>
			<point x="328.33011" y="87.1167"/>
			<point x="299.08511" y="90.3729"/>
			<point x="270.3717" y="93.1738" type="curve"/>
			<point x="254.6472" y="94.7076"/>
			<point x="238.9362" y="96.4087"/>
			<point x="223.2635" y="98.4131" type="curve"/>
			<point x="213.6823" y="99.7412"/>
			<point x="204.1003" y="101.0687"/>
			<point x="194.5184" y="102.3969" type="curve"/>
			<point x="186.6754" y="106.1664"/>
			<point x="180.7336" y="107.0862"/>
			<point x="176.5155" y="105.423" type="curve"/>
			<point x="173.63831" y="126.0834"/>
			<point x="153.4937" y="144.1107"/>
			<point x="132.19479" y="128.5883" type="curve"/>
			<point x="109.2609" y="111.8744"/>
			<point x="99.7394" y="81.4197"/>
			<point x="121.1444" y="58.0322" type="curve"/>
			<point x="149.16141" y="27.4207"/>
			<point x="224.0442" y="32.2229"/>
			<point x="260.9375" y="29.1339" type="curve"/>
			<point x="331.9281" y="23.1891"/>
			<point x="459.31821" y="8.39294"/>
			<point x="473.7579" y="107.4701" type="curve"/>
			<point x="489.21939" y="213.55769"/>
			<point x="367.6752" y="242.5806"/>
			<point x="305.01279" y="295.2692" type="curve"/>
			<point x="263.5596" y="330.12451"/>
			<point x="201.9977" y="402.13379"/>
			<point x="257.34619" y="451.49289" type="curve"/>
			<point x="283.03769" y="474.4043"/>
			<point x="321.40689" y="478.24039"/>
			<point x="354.17111" y="474.8114" type="curve"/>
			<point x="393.7012" y="470.6738"/>
			<point x="467.90771" y="431.48251"/>
			<point x="424.7131" y="378.49551" type="curve"/>
			<point x="410.77151" y="361.3934"/>
			<point x="433.73291" y="337.01349"/>
		</contour>
	</outline>
</glyph>
<glyph name="t" format="2">
	<unicode hex="0074"/>
	<advance width="600"/>
	<outline>
		<contour>
			<point x="307.9718" y="276.79749" type="curve"/>
			<point x="317.146" y="312.01291"/>
			<point x="327.5177" y="349.05521"/>
			<point x="335.98999" y="386.74869" type="curve"/>
			<point x="380.0293" y="389.03439"/>
			<point x="424.34329" y="391.203"/>
			<point x="467.58301" y="398.36121" type="curve"/>
			<point x="496.3483" y="403.1232"/>
			<point x="488.28061" y="447.15149"/>
			<point x="460.896" y="447.7753" type="curve"/>
			<point x="423.0957" y="448.63589"/>
			<point x="384.80899" y="445.67499"/>
			<point x="346.65948" y="442.1777" type="curve"/>
			<point x="353.4808" y="486.35559"/>
			<point x="355.69269" y="530.64758"/>
			<point x="348.42099" y="573.22198" type="curve"/>
			<point x="345.9534" y="587.67151"/>
			<point x="322.04959" y="587.48407"/>
			<point x="319.41769" y="573.22198" type="curve"/>
			<point x="310.9137" y="527.14539"/>
			<point x="302.89609" y="482.1619"/>
			<point x="293.15311" y="437.25891" type="curve"/>
			<point x="286.29639" y="436.6626"/>
			<point x="279.4476" y="436.08279"/>
			<point x="272.62329" y="435.5701" type="curve"/>
			<point x="236.3916" y="432.84851"/>
			<point x="168.3447" y="442.59769"/>
			<point x="141.33611" y="414.50201" type="curve"/>
			<point x="136.2518" y="409.21259"/>
			<point x="132.9895" y="400.41751"/>
			<point x="135.694" y="393.15549" type="curve"/>
			<point x="138.3295" y="386.07849"/>
			<point x="140.8533" y="382.14969"/>
			<point x="147.5323" y="378.53821" type="curve"/>
			<point x="149.9377" y="377.23749"/>
			<point x="152.5836" y="376.7883"/>
			<point x="155.1544" y="376.95679" type="curve"/>
			<point x="192.87601" y="368.95389"/>
			<point x="241.1017" y="379.14609"/>
			<point x="280.41989" y="383.19641" type="curve"/>
			<point x="277.69901" y="372.55621"/>
			<point x="274.8718" y="361.9025"/>
			<point x="271.82431" y="351.21219" type="curve"/>
			<point x="250.86549" y="277.68549"/>
			<point x="228.62489" y="203.9532"/>
			<point x="217.83749" y="128.092" type="curve"/>
			<point x="210.9912" y="79.9432"/>
			<point x="195.8826" y="14.6875"/>
			<point x="248.3466" y="-11.8176" type="curve"/>
			<point x="303.85681" y="-39.8621"/>
			<point x="368.35391" y="-9.51111"/>
			<point x="416.73221" y="18.5107" type="curve"/>
			<point x="447.86069" y="36.5417"/>
			<point x="420.52859" y="81.4825"/>
			<point x="388.8544" y="66.2042" type="curve"/>
			<point x="363.80679" y="54.1223"/>
			<point x="334.86938" y="37.9907"/>
			<point x="306.14749" y="37.4103" type="curve"/>
			<point x="260.77701" y="36.4929"/>
			<point x="269.9158" y="70.8301"/>
			<point x="272.90469" y="102.9669" type="curve"/>
			<point x="278.38559" y="161.90669"/>
			<point x="293.08649" y="219.6606"/>
		</contour>
	</outline>
</glyph>
<glyph name="u" format="2">
	<unicode hex="0075"/>
	<advance width="600"/>
	<outline>
		<contour>
			<point x="109.4495" y="243.26421" type="curve"/>
			<point x="104.0741" y="177.79849"/>
			<point x="83.0029" y="58.4583"/>
			<point x="170.41811" y="38.186" type="curve"/>
			<point x="249.9884" y="19.7327"/>
			<point x="315.46689" y="108.172"/>
			<point x="356.27689" y="162.7411" type="curve"/>
			<point x="361.4502" y="169.6588"/>
			<point x="366.24689" y="176.8036"/>
			<point x="371.12119" y="183.90199" type="curve"/>
			<point x="371.82251" y="173.09331"/>
			<point x="372.9144" y="162.3969"/>
			<point x="374.68381" y="151.9299" type="curve"/>
			<point x="389.72171" y="62.973"/>
			<point x="477.2052" y="69.4916"/>
			<point x="539.61908" y="105.2106" type="curve"/>
			<point x="573.62" y="124.6692"/>
			<point x="543.41803" y="175.9998"/>
			<point x="508.98129" y="157.6257" type="curve"/>
			<point x="475.74829" y="139.895"/>
			<point x="445.21121" y="128.6145"/>
			<point x="431.93539" y="175.1685" type="curve"/>
			<point x="425.00549" y="199.46899"/>
			<point x="431.86581" y="239.7784"/>
			<point x="434.26639" y="264.5105" type="curve"/>
			<point x="436.00949" y="282.4707"/>
			<point x="438.59381" y="300.20389"/>
			<point x="441.81519" y="317.771" type="curve"/>
			<point x="457.8381" y="358.77011"/>
			<point x="470.18491" y="401.26651"/>
			<point x="478.39291" y="444.8248" type="curve"/>
			<point x="484.82059" y="478.9368"/>
			<point x="439.18579" y="491.06509"/>
			<point x="426.83899" y="459.03751" type="curve"/>
			<point x="409.84561" y="414.9567"/>
			<point x="393.27029" y="364.97681"/>
			<point x="382.48471" y="313.93619" type="curve"/>
			<point x="348.92941" y="234.65759"/>
			<point x="300.1593" y="160.32651"/>
			<point x="235.41991" y="109.9725" type="curve"/>
			<point x="195.4297" y="78.8684"/>
			<point x="159.6613" y="90.8081"/>
			<point x="158.4991" y="144.9268" type="curve"/>
			<point x="157.7972" y="177.60249"/>
			<point x="159.3604" y="210.6873"/>
			<point x="161.82739" y="243.26421" type="curve"/>
			<point x="166.80479" y="308.99661"/>
			<point x="180.6635" y="373.728"/>
			<point x="211.77251" y="432.21011" type="curve"/>
			<point x="215.3333" y="435.30939"/>
			<point x="217.6404" y="439.68201"/>
			<point x="217.58611" y="445.23129" type="curve"/>
			<point x="217.57629" y="446.20419"/>
			<point x="217.56709" y="447.1777"/>
			<point x="217.5574" y="448.1506" type="curve"/>
			<point x="217.42371" y="461.88959"/>
			<point x="205.2942" y="468.87939"/>
			<point x="192.9297" y="466.91159" type="curve"/>
			<point x="160.41811" y="461.73831"/>
			<point x="146.9397" y="411.94641"/>
			<point x="137.215" y="385.13309" type="curve"/>
			<point x="120.686" y="339.55869"/>
			<point x="113.4033" y="291.4093"/>
		</contour>
	</outline>
</glyph>
<glyph name="v" format="2">
	<unicode hex="0076"/>
	<advance width="600"/>
	<outline>
		<contour>
			<point x="475.55051" y="421.53079" type="curve"/>
			<point x="429.08081" y="335.22949"/>
			<point x="398.0011" y="242.2571"/>
			<point x="347.38339" y="157.2498" type="curve"/>
			<point x="335.51151" y="137.3114"/>
			<point x="323.98071" y="111.5015"/>
			<point x="307.30042" y="95.1917" type="curve"/>
			<point x="279.4324" y="67.9431"/>
			<point x="272.00681" y="97.7386"/>
			<point x="264.3616" y="124.5026" type="curve"/>
			<point x="250.42419" y="173.299"/>
			<point x="250.4877" y="224.3439"/>
			<point x="249.7357" y="274.6759" type="curve"/>
			<point x="248.88921" y="331.37271"/>
			<point x="257.8046" y="442.6575"/>
			<point x="205.7916" y="481.91281" type="curve"/>
			<point x="148.4442" y="525.19287"/>
			<point x="87.7228" y="435.21671"/>
			<point x="70.564" y="389.17719" type="curve"/>
			<point x="65.0165" y="374.29321"/>
			<point x="87.9449" y="360.40039"/>
			<point x="97.9852" y="373.21469" type="curve"/>
			<point x="110.6866" y="389.4263"/>
			<point x="122.3737" y="409.29141"/>
			<point x="138.5291" y="422.07281" type="curve"/>
			<point x="146.1908" y="428.13419"/>
			<point x="170.4407" y="446.46851"/>
			<point x="180.4877" y="438.97769" type="curve"/>
			<point x="189.9567" y="431.91769"/>
			<point x="190.4926" y="396.3989"/>
			<point x="191.6638" y="384.95969" type="curve"/>
			<point x="196.27139" y="339.94321"/>
			<point x="193.3246" y="294.30179"/>
			<point x="193.2184" y="249.14729" type="curve"/>
			<point x="193.0688" y="185.6207"/>
			<point x="190.09579" y="65.4968"/>
			<point x="252.5354" y="25.3369" type="curve"/>
			<point x="323.26291" y="-20.1532"/>
			<point x="379.52939" y="85.5664"/>
			<point x="407.345" y="132.5311" type="curve"/>
			<point x="455.0806" y="213.13049"/>
			<point x="510.03781" y="306.20361"/>
			<point x="530.52612" y="398.35391" type="curve"/>
			<point x="551" y="481"/>
			<point x="507" y="510"/>
		</contour>
	</outline>
</glyph>
<glyph name="w" format="2">
	<unicode hex="0077"/>
	<advance width="600"/>
	<outline>
		<contour>
			<point x="525" y="436" type="curve"/>
			<point x="533" y="367"/>
			<point x="515" y="227"/>
			<point x="456" y="179" type="curve"/>
			<point x="355" y="99"/>
			<point x="339" y="310"/>
			<point x="331" y="366" type="curve"/>
			<point x="326" y="399"/>
			<point x="281" y="391"/>
			<point x="272" y="366" type="curve"/>
			<point x="252" y="314"/>
			<point x="231" y="264"/>
			<point x="207" y="215" type="curve"/>
			<point x="197" y="193"/>
			<point x="185" y="172"/>
			<point x="174" y="150" type="curve"/>
			<point x="160" y="125"/>
			<point x="137" y="63"/>
			<point x="95" y="114" type="curve"/>
			<point x="68" y="147"/>
			<point x="82" y="234"/>
			<point x="84" y="275" type="curve"/>
			<point x="86" y="335"/>
			<point x="94" y="396"/>
			<point x="104" y="455" type="curve"/>
			<point x="108" y="475"/>
			<point x="78" y="484"/>
			<point x="74" y="464" type="curve"/>
			<point x="53" y="377"/>
			<point x="39" y="289"/>
			<point x="35" y="200" type="curve"/>
			<point x="32" y="142"/>
			<point x="33" y="71"/>
			<point x="94" y="44" type="curve"/>
			<point x="154" y="17"/>
			<point x="193" y="66"/>
			<point x="221" y="113" type="curve"/>
			<point x="246" y="157"/>
			<point x="269" y="202"/>
			<point x="289" y="249" type="curve"/>
			<point x="310" y="167"/>
			<point x="351" y="63"/>
			<point x="451" y="96" type="curve"/>
			<point x="563" y="132"/>
			<point x="602" y="335"/>
			<point x="593" y="436" type="curve"/>
			<point x="589" y="479"/>
			<point x="520" y="479"/>
		</contour>
	</outline>
</glyph>
<glyph name="x" format="2">
	<unicode hex="0078"/>
	<advance width="600"/>
	<outline>
		<contour>
			<point x="492.76431" y="122.793" type="curve"/>
			<point x="454.63379" y="61.8359"/>
			<point x="364.2822" y="189.7412"/>
			<point x="338.84641" y="229.21629" type="curve"/>
			<point x="341.07669" y="231.52161"/>
			<point x="343.2739" y="233.87331"/>
			<point x="345.51941" y="236.1566" type="curve"/>
			<point x="397.69958" y="289.2291"/>
			<point x="450.99789" y="341.23721"/>
			<point x="504.21881" y="393.26349" type="curve"/>
			<point x="524.82123" y="413.40329"/>
			<point x="494.19861" y="443.13901"/>
			<point x="472.89609" y="424.58621" type="curve"/>
			<point x="417.65991" y="376.48071"/>
			<point x="364.11679" y="326.69312"/>
			<point x="311.5137" y="275.73001" type="curve"/>
			<point x="292.59341" y="309.00211"/>
			<point x="273.42831" y="342.4884"/>
			<point x="248.9362" y="371.56921" type="curve"/>
			<point x="224.8907" y="400.12021"/>
			<point x="186.19141" y="425.3027"/>
			<point x="149.87061" y="401.17981" type="curve"/>
			<point x="121.2994" y="382.20401"/>
			<point x="115.307" y="341.0675"/>
			<point x="128.8074" y="311.9501" type="curve"/>
			<point x="132.9285" y="303.0621"/>
			<point x="148.3356" y="302.94739"/>
			<point x="152.4182" y="311.9501" type="curve"/>
			<point x="164.8175" y="339.29321"/>
			<point x="169.5013" y="377.96509"/>
			<point x="211.8317" y="339.483" type="curve"/>
			<point x="230.9595" y="322.09409"/>
			<point x="244.1644" y="290.8923"/>
			<point x="256.74619" y="268.5712" type="curve"/>
			<point x="262.26141" y="258.7872"/>
			<point x="267.6825" y="248.9398"/>
			<point x="273.1207" y="239.1028" type="curve"/>
			<point x="230.8649" y="199.1754"/>
			<point x="187.6416" y="158.57851"/>
			<point x="151.76939" y="114.0594" type="curve"/>
			<point x="129.4025" y="86.3"/>
			<point x="164.3744" y="49.1229"/>
			<point x="191.5997" y="74.2291" type="curve"/>
			<point x="230.3381" y="109.953"/>
			<point x="265.66589" y="150.1544"/>
			<point x="301.56741" y="189.4415" type="curve"/>
			<point x="311.9458" y="172.3535"/>
			<point x="322.96451" y="155.6714"/>
			<point x="335.31979" y="139.83949" type="curve"/>
			<point x="363.9252" y="103.1836"/>
			<point x="404.36221" y="63.0298"/>
			<point x="451.5228" y="52.5336" type="curve"/>
			<point x="490.69519" y="43.8147"/>
			<point x="531.79572" y="62.0288"/>
			<point x="538.24341" y="103.6188" type="curve"/>
			<point x="542.39142" y="130.3754"/>
			<point x="508.65302" y="148.19341"/>
		</contour>
	</outline>
</glyph>
<glyph name="y" format="2">
	<unicode hex="0079"/>
	<advance width="600"/>
	<outline>
		<contour>
			<point x="425" y="333" type="curve"/>
			<point x="394" y="253"/>
			<point x="333" y="185"/>
			<point x="254" y="152" type="curve"/>
			<point x="246" y="148"/>
			<point x="238" y="145"/>
			<point x="229" y="143" type="curve"/>
			<point x="208" y="136"/>
			<point x="197" y="143"/>
			<point x="196" y="161" type="curve"/>
			<point x="184" y="181"/>
			<point x="185" y="220"/>
			<point x="184" y="243" type="curve"/>
			<point x="183" y="296"/>
			<point x="196" y="344"/>
			<point x="206" y="395" type="curve"/>
			<point x="211" y="417"/>
			<point x="181" y="432"/>
			<point x="169" y="411" type="curve"/>
			<point x="132" y="346"/>
			<point x="126" y="262"/>
			<point x="137" y="189" type="curve"/>
			<point x="143" y="141"/>
			<point x="156" y="85"/>
			<point x="215" y="85" type="curve"/>
			<point x="270" y="85"/>
			<point x="331" y="127"/>
			<point x="372" y="161" type="curve"/>
			<point x="387" y="174"/>
			<point x="400" y="188"/>
			<point x="412" y="202" type="curve"/>
			<point x="402" y="125"/>
			<point x="384" y="48"/>
			<point x="356" y="-23" type="curve"/>
			<point x="333" y="-81"/>
			<point x="293" y="-126"/>
			<point x="227" y="-132" type="curve"/>
			<point x="166" y="-138"/>
			<point x="108" y="-113"/>
			<point x="49" y="-103" type="curve"/>
			<point x="22" y="-98"/>
			<point x="2" y="-134"/>
			<point x="29" y="-149" type="curve"/>
			<point x="139" y="-209"/>
			<point x="298" y="-224"/>
			<point x="376" y="-107" type="curve"/>
			<point x="414" y="-50"/>
			<point x="430" y="23"/>
			<point x="445" y="88" type="curve"/>
			<point x="462" y="167"/>
			<point x="472" y="246"/>
			<point x="478" y="326" type="curve"/>
			<point x="481" y="359"/>
			<point x="435" y="360"/>
		</contour>
	</outline>
</glyph>
<glyph name="z" format="2">
	<unicode hex="007A"/>
	<advance width="600"/>
	<outline>
		<contour>
			<point x="505.35339" y="93.9874" type="curve"/>
			<point x="426.05469" y="89.0601"/>
			<point x="346.95309" y="81.5222"/>
			<point x="267.86499" y="73.8922" type="curve"/>
			<point x="343.71579" y="155.144"/>
			<point x="438.34171" y="223.9453"/>
			<point x="480.5621" y="328.33249" type="curve"/>
			<point x="486.21341" y="342.30411"/>
			<point x="474.30731" y="362.03922"/>
			<point x="459.9097" y="364.70581" type="curve"/>
			<point x="376.2677" y="380.19839"/>
			<point x="294.44461" y="380.58109"/>
			<point x="210.68359" y="365.68359" type="curve"/>
			<point x="188.75121" y="361.7822"/>
			<point x="193.5406" y="324.41101"/>
			<point x="215.99001" y="326.47461" type="curve"/>
			<point x="279.33899" y="332.29861"/>
			<point x="341.43741" y="329.14731"/>
			<point x="403.13959" y="316.98239" type="curve"/>
			<point x="332.2937" y="220.3815"/>
			<point x="236.8622" y="148.05479"/>
			<point x="165.71899" y="50.7935" type="curve"/>
			<point x="151.8188" y="31.7902"/>
			<point x="170.3058" y="0.00183"/>
			<point x="193.5797" y="2.24304" type="curve"/>
			<point x="297.57571" y="12.2571"/>
			<point x="401.71881" y="21.0889"/>
			<point x="505.35339" y="34.3781" type="curve"/>
			<point x="542.24487" y="39.1083"/>
			<point x="544.53491" y="96.4215"/>
		</contour>
	</outline>
</glyph>
